<?xml version="1.0" encoding="UTF-8" standalone="no"?>
<svg
   xmlns:dc="http://purl.org/dc/elements/1.1/"
   xmlns:cc="http://creativecommons.org/ns#"
   xmlns:rdf="http://www.w3.org/1999/02/22-rdf-syntax-ns#"
   xmlns:svg="http://www.w3.org/2000/svg"
   xmlns="http://www.w3.org/2000/svg"
   xmlns:sodipodi="http://sodipodi.sourceforge.net/DTD/sodipodi-0.dtd"
   xmlns:inkscape="http://www.inkscape.org/namespaces/inkscape"
   version="1.1"
   id="svg2"
   xml:space="preserve"
   width="4946.6665"
   height="4946.6665"
   viewBox="0 0 4946.6665 4946.6665"
   sodipodi:docname="20943565.eps"><metadata
     id="metadata8"><rdf:RDF><cc:Work
         rdf:about=""><dc:format>image/svg+xml</dc:format><dc:type
           rdf:resource="http://purl.org/dc/dcmitype/StillImage" /></cc:Work></rdf:RDF></metadata><defs
     id="defs6"><clipPath
       clipPathUnits="userSpaceOnUse"
       id="clipPath22"><path
         d="m 18970.7,4550 c -1714.4,0 -3024,236.3 -3546.4,340.9 -1894.3,379.3 -5556.03,1112.5 -8203.4,4181.6 -4005.24,4643.4 -3381.57,11958.8 -274.83,16787.9 568.27,883.3 3570.03,5785.9 9671.13,6572.1 605.6,78.1 1228.2,117.5 1858.7,117.5 3214,0 6648.8,-1023.5 9254.5,-3175.7 429.7,-354.8 829,-733.4 1199.1,-1132.4 -140.6,42.5 -289.5,65.3 -443.6,65.3 -11.8,0 -23.6,-0.1 -35.4,-0.4 l -13035.3,-295.3 c -719.1,-16.3 -1299.4,-593.3 -1319.6,-1312.3 l -151.4,-5363.5 c -1345.2,2308.9 -1915.8,5892.5 -2097.9,7315.7 -11,85.6 -80.9,131.7 -151.1,131.7 -57.9,0 -116,-31.5 -141,-98.3 -1618.29,-4318.6 -2076.19,-7724.4 -1880.36,-10396 -1153.77,1801.9 -2136.5,3616.6 -2362.56,4917.1 -9.58,55.2 -53.31,80.9 -102.57,80.9 -62.72,0 -134.41,-41.6 -155.99,-116.7 -413.3,-1437.8 -1156.74,-5055.7 418.58,-8763.8 1446.71,-3405.3 4482.8,-5167 6110.8,-5899 l -20.6,-728.6 c -15.8,-561.2 434.9,-1024.2 995.7,-1024.2 1.5,0 3,0 4.5,0 l 12717,56.9 C 24408,4991.2 21312.2,4550 18970.7,4550 m 13666.6,12112.9 c -110.1,1985.3 -434.5,3667.6 -260.6,4541.9 291.7,-1510 371.4,-3051.3 260.6,-4541.9 m -2438.1,2147.6 -181.2,7998.2 c -0.7,31.2 -2.3,62.1 -4.8,92.7 1169.4,-1662.9 1930.7,-3568.5 2330.8,-5532.1 -22.7,15.3 -51.1,24.1 -80.3,24.1 -29.7,0 -60.1,-9.1 -85.9,-30 -496.5,-402.7 -1373.4,-1243.9 -1978.6,-2552.9"
         id="path20" /></clipPath><linearGradient
       x1="0"
       y1="0"
       x2="1"
       y2="0"
       gradientUnits="userSpaceOnUse"
       gradientTransform="matrix(-25056.7,31118.8,31118.8,25056.7,36210.9,-3846.5)"
       spreadMethod="pad"
       id="linearGradient28"><stop
         style="stop-opacity:1;stop-color:#dae3fe"
         offset="0"
         id="stop24" /><stop
         style="stop-opacity:1;stop-color:#e9effd"
         offset="1"
         id="stop26" /></linearGradient><clipPath
       clipPathUnits="userSpaceOnUse"
       id="clipPath50"><path
         d="m 14557.2,6754.5 c -560.8,0 -1011.5,463 -995.7,1024.2 l 20.6,728.6 26.8,947.6 3.1,111.6 21.1,746.8 101.6,3599.4 6.6,236 202.9,7187 151.4,5363.5 c 20.2,719 600.5,1296 1319.6,1312.3 l 13035.3,295.3 c 11.8,0.3 23.6,0.4 35.4,0.4 154.1,0 303,-22.8 443.6,-65.3 589.1,-178.2 1031,-702.2 1083.7,-1340.5 2.5,-30.6 4.1,-61.5 4.8,-92.7 l 181.2,-7998.2 206.6,-9118 11.6,-510.4 14.4,-634.3 17.2,-759.4 c 11.9,-528.8 -412.2,-964.6 -941.1,-967 l -2229.2,-10 -12717,-56.9 c -1.5,0 -3,0 -4.5,0 m 883.1,20597.9 c -221.2,0 -405,-175.1 -411.8,-398.9 L 14449.7,7947.7 c -8,-260.6 195.8,-478.7 456.4,-488.2 1302.6,-47.5 5087.9,-173.7 8546.3,-173.7 2200.6,0 4268.5,51.1 5481.4,206 189.9,24.2 330.7,187.7 327.5,379.1 l -334.5,19941.5 c -4.1,246.7 -206.1,438.2 -444.3,438.2 -23.3,0 -46.9,-1.8 -70.7,-5.6 -1541.8,-244.8 -6351.6,-945.1 -10911.8,-945.1 -688.8,0 -1371.7,16 -2036.9,51.9 -7.6,0.4 -15.2,0.6 -22.8,0.6"
         id="path48" /></clipPath><linearGradient
       x1="0"
       y1="0"
       x2="1"
       y2="0"
       gradientUnits="userSpaceOnUse"
       gradientTransform="matrix(48.7578,25099.8,25099.8,-48.7578,22005,7674.4)"
       spreadMethod="pad"
       id="linearGradient56"><stop
         style="stop-opacity:1;stop-color:#09005d"
         offset="0"
         id="stop52" /><stop
         style="stop-opacity:1;stop-color:#1a0f91"
         offset="1"
         id="stop54" /></linearGradient><clipPath
       clipPathUnits="userSpaceOnUse"
       id="clipPath66"><path
         d="m 23452.4,7285.8 c -3458.4,0 -7243.7,126.2 -8546.3,173.7 -260.6,9.5 -464.4,227.6 -456.4,488.2 l 578.8,19005.8 c 6.8,223.8 190.6,398.9 411.8,398.9 7.6,0 15.2,-0.2 22.8,-0.6 665.2,-35.9 1348.1,-51.9 2036.9,-51.9 4560.2,0 9370,700.3 10911.8,945.1 23.8,3.8 47.4,5.6 70.7,5.6 238.2,0 440.2,-191.5 444.3,-438.2 l 334.5,-19941.5 c 3.2,-191.4 -137.6,-354.9 -327.5,-379.1 -1212.9,-154.9 -3280.8,-206 -5481.4,-206 m -7703.1,19603.5 c -212.9,0 -389.8,-168.6 -396.4,-383.9 l -557,-18290.2 c -7.6,-250.7 188.5,-460.6 439.2,-469.7 1253.6,-45.8 4896.4,-167.2 8224.6,-167.2 2117.7,0 4107.7,49.1 5275,198.2 182.7,23.3 318.2,180.6 315.1,364.8 l -321.9,19190.6 c -4,237.5 -198.4,421.7 -427.6,421.7 -22.4,0 -45.1,-1.7 -68,-5.4 -1483.7,-235.5 -6112.5,-909.4 -10500.9,-909.4 -662.8,0 -1320,15.3 -1960.3,49.9 -7.3,0.4 -14.6,0.6 -21.8,0.6"
         id="path64" /></clipPath><linearGradient
       x1="0"
       y1="0"
       x2="1"
       y2="0"
       gradientUnits="userSpaceOnUse"
       gradientTransform="matrix(-15712,22084.2,-22084.2,-15712,32289.1,2964.4)"
       spreadMethod="pad"
       id="linearGradient72"><stop
         style="stop-opacity:1;stop-color:#4f52ff"
         offset="0"
         id="stop68" /><stop
         style="stop-opacity:1;stop-color:#4042e2"
         offset="1"
         id="stop70" /></linearGradient><clipPath
       clipPathUnits="userSpaceOnUse"
       id="clipPath86"><path
         d="m 23896.9,24412.3 c 10.5,-465 396,-833.4 861,-822.8 464.9,10.5 833.4,396 822.8,861 -10.5,464.9 -396,833.4 -861,822.8 -465,-10.5 -833.4,-396 -822.8,-861 z"
         id="path84" /></clipPath><linearGradient
       x1="0"
       y1="0"
       x2="1"
       y2="0"
       gradientUnits="userSpaceOnUse"
       gradientTransform="matrix(6567.4,-9313.35,9313.35,6567.4,23696.2,25909.9)"
       spreadMethod="pad"
       id="linearGradient92"><stop
         style="stop-opacity:1;stop-color:#4f52ff"
         offset="0"
         id="stop88" /><stop
         style="stop-opacity:1;stop-color:#4042e2"
         offset="1"
         id="stop90" /></linearGradient><clipPath
       clipPathUnits="userSpaceOnUse"
       id="clipPath102"><path
         d="m 26073.6,21988.5 -2682.3,-60.8 c -164.4,-3.7 -267.1,175.6 -181.6,316.2 219.7,361.7 684.5,896.2 1510.6,891.3 796.2,-4.8 1278.5,-467.2 1523.3,-801.1 103.9,-141.7 5.7,-341.6 -170,-345.6 z"
         id="path100" /></clipPath><linearGradient
       x1="0"
       y1="0"
       x2="1"
       y2="0"
       gradientUnits="userSpaceOnUse"
       gradientTransform="matrix(6567.65,-9313.7,9313.7,6567.65,22627.7,25156.7)"
       spreadMethod="pad"
       id="linearGradient108"><stop
         style="stop-opacity:1;stop-color:#4f52ff"
         offset="0"
         id="stop104" /><stop
         style="stop-opacity:1;stop-color:#4042e2"
         offset="1"
         id="stop106" /></linearGradient><clipPath
       clipPathUnits="userSpaceOnUse"
       id="clipPath148"><path
         d="m 21364.1,29998.3 c -4.6,203.7 156.7,372.5 360.4,377.1 203.7,4.7 372.5,-156.7 377.1,-360.4 4.7,-203.7 -156.7,-372.5 -360.4,-377.1 -203.7,-4.6 -372.5,156.7 -377.1,360.4 z m -282.6,-1137.5 1476.1,164.7 93.5,1359.5 c 18.8,273.5 -157.3,523.5 -422,595.1 -290.1,78.5 -699.7,75.7 -1163.1,-262.5 -908.9,-663.3 15.5,-1856.8 15.5,-1856.8 z"
         id="path146" /></clipPath><linearGradient
       x1="0"
       y1="0"
       x2="1"
       y2="0"
       gradientUnits="userSpaceOnUse"
       gradientTransform="matrix(-6262.49,-8638.39,-8638.39,6262.49,24017.3,32959.4)"
       spreadMethod="pad"
       id="linearGradient154"><stop
         style="stop-opacity:1;stop-color:#09005d"
         offset="0"
         id="stop150" /><stop
         style="stop-opacity:1;stop-color:#1a0f91"
         offset="1"
         id="stop152" /></linearGradient><clipPath
       clipPathUnits="userSpaceOnUse"
       id="clipPath166"><path
         d="m 24596,28194.5 -15.4,682.1 c -5.4,235.5 -204.8,419.6 -439.9,406.2 l -4699,-267.6 c -208.5,-11.9 -373.8,-180.5 -381.6,-389.2 l -24.4,-656.3 z"
         id="path164" /></clipPath><linearGradient
       x1="0"
       y1="0"
       x2="1"
       y2="0"
       gradientUnits="userSpaceOnUse"
       gradientTransform="matrix(6175.15,-7751.5,7751.5,6175.15,18920.9,32115.6)"
       spreadMethod="pad"
       id="linearGradient172"><stop
         style="stop-opacity:1;stop-color:#09005d"
         offset="0"
         id="stop168" /><stop
         style="stop-opacity:1;stop-color:#1a0f91"
         offset="1"
         id="stop170" /></linearGradient><clipPath
       clipPathUnits="userSpaceOnUse"
       id="clipPath186"><path
         d="m 26063.8,28477.6 -8223.3,-186.1 c -295.7,-6.7 -543.7,-225.2 -587.5,-517.7 l -6.1,-40.4 c -48,-320.4 204.3,-606.7 528.2,-599.4 l 8436.7,191.2 c 193.8,4.4 344.6,169.9 330.9,363.3 l -26.7,377.2 c -16.7,235.9 -215.7,417.2 -452.2,411.9 z"
         id="path184" /></clipPath><linearGradient
       x1="0"
       y1="0"
       x2="1"
       y2="0"
       gradientUnits="userSpaceOnUse"
       gradientTransform="matrix(-194.945,8724.07,8724.07,194.945,21916,26597.3)"
       spreadMethod="pad"
       id="linearGradient192"><stop
         style="stop-opacity:1;stop-color:#09005d"
         offset="0"
         id="stop188" /><stop
         style="stop-opacity:1;stop-color:#1a0f91"
         offset="1"
         id="stop190" /></linearGradient><clipPath
       clipPathUnits="userSpaceOnUse"
       id="clipPath202"><path
         d="m 19472.1,12019 -1095.9,2661.4 c -21.2,51.5 -71.3,85.1 -127,85.1 h -674 c -100.1,0 -166.5,-103.6 -124.8,-194.6 L 18721,11798.6 c 27,-58.9 91.5,-90.9 154.7,-76.9 l 499.2,110.9 c 83.2,18.5 129.7,107.6 97.2,186.4 z"
         id="path200" /></clipPath><linearGradient
       x1="0"
       y1="0"
       x2="1"
       y2="0"
       gradientUnits="userSpaceOnUse"
       gradientTransform="matrix(2044.78,0,0,-2044.78,17437.7,13242)"
       spreadMethod="pad"
       id="linearGradient208"><stop
         style="stop-opacity:1;stop-color:#4f52ff"
         offset="0"
         id="stop204" /><stop
         style="stop-opacity:1;stop-color:#4042e2"
         offset="1"
         id="stop206" /></linearGradient><clipPath
       clipPathUnits="userSpaceOnUse"
       id="clipPath218"><path
         d="m 21158.6,5392.7 h -322.7 v 3490 h 322.7 z"
         id="path216" /></clipPath><linearGradient
       x1="0"
       y1="0"
       x2="1"
       y2="0"
       gradientUnits="userSpaceOnUse"
       gradientTransform="matrix(-9066.96,-9410.42,-9410.42,9066.96,35278.4,21959.9)"
       spreadMethod="pad"
       id="linearGradient224"><stop
         style="stop-opacity:1;stop-color:#09005d"
         offset="0"
         id="stop220" /><stop
         style="stop-opacity:1;stop-color:#1a0f91"
         offset="1"
         id="stop222" /></linearGradient><clipPath
       clipPathUnits="userSpaceOnUse"
       id="clipPath234"><path
         d="m 22410.5,5325.4 h -2826.6 v 176.3 c 0,18.7 15.2,33.8 33.8,33.8 h 2759.1 c 18.6,0 33.7,-15.1 33.7,-33.8 z"
         id="path232" /></clipPath><linearGradient
       x1="0"
       y1="0"
       x2="1"
       y2="0"
       gradientUnits="userSpaceOnUse"
       gradientTransform="matrix(-9216.22,-9565.33,-9565.33,9216.22,36397.7,21404.2)"
       spreadMethod="pad"
       id="linearGradient240"><stop
         style="stop-opacity:1;stop-color:#09005d"
         offset="0"
         id="stop236" /><stop
         style="stop-opacity:1;stop-color:#1a0f91"
         offset="1"
         id="stop238" /></linearGradient><clipPath
       clipPathUnits="userSpaceOnUse"
       id="clipPath250"><path
         d="m 22830,9003.9 c 0,-190.9 -156.1,-347.1 -347,-347.1 h -2859.8 c -190.9,0 -347,156.2 -347,347.1 v 313.8 c 0,190.9 156.1,347 347,347 H 22483 c 190.9,0 347,-156.1 347,-347 z"
         id="path248" /></clipPath><linearGradient
       x1="0"
       y1="0"
       x2="1"
       y2="0"
       gradientUnits="userSpaceOnUse"
       gradientTransform="matrix(-9066.95,-9410.41,-9410.41,9066.95,34296.5,22905.9)"
       spreadMethod="pad"
       id="linearGradient256"><stop
         style="stop-opacity:1;stop-color:#09005d"
         offset="0"
         id="stop252" /><stop
         style="stop-opacity:1;stop-color:#1a0f91"
         offset="1"
         id="stop254" /></linearGradient><clipPath
       clipPathUnits="userSpaceOnUse"
       id="clipPath266"><path
         d="m 18614.7,11209.8 c 0,0 -479.5,-74.3 -1018.7,-434.8 -84.8,-56.7 -131.4,-155.6 -118.6,-256.8 64.6,-511.4 330,-2166.7 1205.4,-3783.3 46.1,-85.3 59.4,-184.5 39,-279.3 l -152.1,-707.7 -282,-264.5 h 726.4 l 483.7,1308.9 -206.8,65.4 c -160.4,50.7 -270.4,198.2 -273.3,366.4 l -24.3,1404.1 c 20.7,625.5 -383.5,1057.1 -383.5,1057.1 l 1160.1,56.4 z"
         id="path264" /></clipPath><linearGradient
       x1="0"
       y1="0"
       x2="1"
       y2="0"
       gradientUnits="userSpaceOnUse"
       gradientTransform="matrix(2294.67,0,0,-2294.67,16882.3,8346.6)"
       spreadMethod="pad"
       id="linearGradient272"><stop
         style="stop-opacity:1;stop-color:#febbba"
         offset="0"
         id="stop268" /><stop
         style="stop-opacity:1;stop-color:#ff928e"
         offset="1"
         id="stop270" /></linearGradient><clipPath
       clipPathUnits="userSpaceOnUse"
       id="clipPath282"><path
         d="m 18004.1,5355.8 c -66.2,-86.6 712,-200.9 1105.2,-11.5 0,0 545,948.2 545,1436.4 0,0 -43.3,99.6 -363.3,77 0,0 -183,-1122.7 -376.2,-1248.5 -193.3,-125.8 -540.6,-12.7 -540.6,-12.7 0,0 -272.5,-113 -370.1,-240.7 z"
         id="path280" /></clipPath><linearGradient
       x1="0"
       y1="0"
       x2="1"
       y2="0"
       gradientUnits="userSpaceOnUse"
       gradientTransform="matrix(7675.62,4893.85,4893.85,-7675.62,-39017.4,-31017.5)"
       spreadMethod="pad"
       id="linearGradient288"><stop
         style="stop-opacity:1;stop-color:#53d8ff"
         offset="0"
         id="stop284" /><stop
         style="stop-opacity:1;stop-color:#3840f7"
         offset="1"
         id="stop286" /></linearGradient><clipPath
       clipPathUnits="userSpaceOnUse"
       id="clipPath298"><path
         d="m 19623.2,9664.7 c -6.2,10.7 -1249,149.5 -1249,149.5 0,0 40.6,-377.9 -86.5,-898.1 C 18160.6,8395.9 16335.8,6142 16335.8,6142 l 191.3,-606.5 c -591.6,-206.1 -1173.5,-239 -1746.1,-105.1 l 1185.8,711.6 c 0,0 1109.7,3781.9 1789.5,4456.5 l 1245.8,431.1 z"
         id="path296" /></clipPath><linearGradient
       x1="0"
       y1="0"
       x2="1"
       y2="0"
       gradientUnits="userSpaceOnUse"
       gradientTransform="matrix(-2964.94,5099.7,-5099.7,-2964.94,17382.1,7386.2)"
       spreadMethod="pad"
       id="linearGradient304"><stop
         style="stop-opacity:1;stop-color:#febbba"
         offset="0"
         id="stop300" /><stop
         style="stop-opacity:1;stop-color:#ff928e"
         offset="1"
         id="stop302" /></linearGradient><clipPath
       clipPathUnits="userSpaceOnUse"
       id="clipPath314"><path
         d="m 22410.5,11865.3 c 0,0 716.1,-1065.1 774.9,-1551 58.7,-485.8 -196.2,-683.2 -947.5,-715.8 -751.4,-32.5 -2757.2,-32 -2757.2,-32 l -1711.9,1463.1 c 0,0 1247.6,445.1 1571.9,571 324.4,125.9 3069.8,264.7 3069.8,264.7 z"
         id="path312" /></clipPath><linearGradient
       x1="0"
       y1="0"
       x2="1"
       y2="0"
       gradientUnits="userSpaceOnUse"
       gradientTransform="matrix(-6319.39,-7624.49,-7624.49,6319.39,29017.8,20805.6)"
       spreadMethod="pad"
       id="linearGradient320"><stop
         style="stop-opacity:1;stop-color:#ff928e"
         offset="0"
         id="stop316" /><stop
         style="stop-opacity:1;stop-color:#fe7062"
         offset="1"
         id="stop318" /></linearGradient><clipPath
       clipPathUnits="userSpaceOnUse"
       id="clipPath330"><path
         d="m 16454.8,5739.7 c 0,0 206,-199.5 66.9,-421.5 0,0 -1631.9,-289.2 -2074.9,-158 0,0 92,210 590.9,449 l -36.8,-28.3 c -46.6,-35.7 -19.3,-110.2 39.3,-106.9 328.8,18.8 1009.1,79 1414.6,265.7 z"
         id="path328" /></clipPath><linearGradient
       x1="0"
       y1="0"
       x2="1"
       y2="0"
       gradientUnits="userSpaceOnUse"
       gradientTransform="matrix(7675.63,4893.85,4893.85,-7675.63,-39722.4,-29912)"
       spreadMethod="pad"
       id="linearGradient336"><stop
         style="stop-opacity:1;stop-color:#53d8ff"
         offset="0"
         id="stop332" /><stop
         style="stop-opacity:1;stop-color:#3840f7"
         offset="1"
         id="stop334" /></linearGradient><clipPath
       clipPathUnits="userSpaceOnUse"
       id="clipPath346"><path
         d="m 20474,12006.2 c 0,0 -833.9,794.1 -1244.4,1320 -221.8,284.3 -291.5,658.5 -188.9,1004.2 187.4,631.4 520.4,1285.3 550.8,1387.1 46.6,156 981.5,149.5 981.5,149.5 0,0 1839.9,-1194.1 2562.8,-3216.8 l -811.8,-252.8 c 0,0 -480.4,806 -955.1,1318.4 0,0 821.3,-1085 850.3,-1529.2 z"
         id="path344" /></clipPath><linearGradient
       x1="0"
       y1="0"
       x2="1"
       y2="0"
       gradientUnits="userSpaceOnUse"
       gradientTransform="matrix(1442.47,-4876.91,-4876.91,-1442.47,19274.3,19304.4)"
       spreadMethod="pad"
       id="linearGradient352"><stop
         style="stop-opacity:1;stop-color:#ff928e"
         offset="0"
         id="stop348" /><stop
         style="stop-opacity:1;stop-color:#fe7062"
         offset="1"
         id="stop350" /></linearGradient><clipPath
       clipPathUnits="userSpaceOnUse"
       id="clipPath362"><path
         d="m 19478.4,16589.3 c 9.8,-32.4 253.8,-841.4 272.9,-858.2 19.1,-16.8 535.2,-44.6 778.1,121.5 l -412.1,862.7 z"
         id="path360" /></clipPath><linearGradient
       x1="0"
       y1="0"
       x2="1"
       y2="0"
       gradientUnits="userSpaceOnUse"
       gradientTransform="matrix(-242.199,1554.1,1554.1,242.199,20219.8,14835.7)"
       spreadMethod="pad"
       id="linearGradient368"><stop
         style="stop-opacity:1;stop-color:#febbba"
         offset="0"
         id="stop364" /><stop
         style="stop-opacity:1;stop-color:#ff928e"
         offset="1"
         id="stop366" /></linearGradient><clipPath
       clipPathUnits="userSpaceOnUse"
       id="clipPath378"><path
         d="m 19176.9,17776.2 c 0,0 -289.4,-316.3 -295.4,-947 -6,-630.7 286.1,-786.5 530.2,-714.3 244,72.1 584,234.3 792.4,735.5 208.4,501.3 -643.1,1319.5 -1027.2,925.8 z"
         id="path376" /></clipPath><linearGradient
       x1="0"
       y1="0"
       x2="1"
       y2="0"
       gradientUnits="userSpaceOnUse"
       gradientTransform="matrix(2286.38,-384.062,-384.062,-2286.38,18797.4,17085.1)"
       spreadMethod="pad"
       id="linearGradient384"><stop
         style="stop-opacity:1;stop-color:#febbba"
         offset="0"
         id="stop380" /><stop
         style="stop-opacity:1;stop-color:#ff928e"
         offset="1"
         id="stop382" /></linearGradient><clipPath
       clipPathUnits="userSpaceOnUse"
       id="clipPath394"><path
         d="m 19833.6,17015.6 c 0,0 -77.5,883.1 -754.4,583.3 l -107.5,-183.3 c 0,0 -439.9,307.5 -126.9,694.2 313,386.8 999.6,485.5 1422.5,18.7 422.9,-466.7 483.8,-865.5 316.8,-1258.3 -167,-392.8 -421.1,-150.9 -421.1,-150.9 0,0 44.1,315.9 -79.5,417.4 -123.6,101.5 -197.8,-123.5 -197.8,-123.5 z"
         id="path392" /></clipPath><linearGradient
       x1="0"
       y1="0"
       x2="1"
       y2="0"
       gradientUnits="userSpaceOnUse"
       gradientTransform="matrix(-1527.69,-4383.25,-4383.25,1527.69,20818.6,20705.3)"
       spreadMethod="pad"
       id="linearGradient400"><stop
         style="stop-opacity:1;stop-color:#09005d"
         offset="0"
         id="stop396" /><stop
         style="stop-opacity:1;stop-color:#1a0f91"
         offset="1"
         id="stop398" /></linearGradient><clipPath
       clipPathUnits="userSpaceOnUse"
       id="clipPath410"><path
         d="m 19947.8,16965.7 c 0,0 -42.4,453.7 211.7,381.9 254,-71.8 17.2,-429.2 -81.9,-555.2 z"
         id="path408" /></clipPath><linearGradient
       x1="0"
       y1="0"
       x2="1"
       y2="0"
       gradientUnits="userSpaceOnUse"
       gradientTransform="matrix(2286.37,-384.06,-384.06,-2286.37,18831.3,17286.9)"
       spreadMethod="pad"
       id="linearGradient416"><stop
         style="stop-opacity:1;stop-color:#febbba"
         offset="0"
         id="stop412" /><stop
         style="stop-opacity:1;stop-color:#ff928e"
         offset="1"
         id="stop414" /></linearGradient><clipPath
       clipPathUnits="userSpaceOnUse"
       id="clipPath426"><path
         d="m 18775.2,11947.3 612.6,590.5 847.6,-358 c 0,0 843.6,-130.7 1326.5,0 482.8,130.7 482.8,130.7 482.8,130.7 l 1091.1,339.7 171.4,-484.3 c 43.5,-123 -0.2,-259.5 -106.6,-335.1 -94.3,-67 -205,-140.8 -275.5,-171.6 -143.7,-62.9 -3542.2,43.5 -3542.2,43.5 z"
         id="path424" /></clipPath><linearGradient
       x1="0"
       y1="0"
       x2="1"
       y2="0"
       gradientUnits="userSpaceOnUse"
       gradientTransform="matrix(4548.68,0,0,-4548.68,21610.3,12144.8)"
       spreadMethod="pad"
       id="linearGradient432"><stop
         style="stop-opacity:1;stop-color:#febbba"
         offset="0"
         id="stop428" /><stop
         style="stop-opacity:1;stop-color:#ff928e"
         offset="1"
         id="stop430" /></linearGradient><clipPath
       clipPathUnits="userSpaceOnUse"
       id="clipPath442"><path
         d="m 20253.8,18018.8 c -127.1,48.7 -139.3,223.7 -25.9,298.9 366.2,242.5 996.3,455.7 1636.4,-272.7 721,-820.4 1124.4,-1210.9 1352.8,-1207.2 149.9,2.5 237.5,-167.1 138.7,-280 -72.9,-83.5 -197.9,-158.5 -405.3,-203.5 -1600.1,-347.3 -1951.4,1379 -2696.7,1664.5 z"
         id="path440" /></clipPath><linearGradient
       x1="0"
       y1="0"
       x2="1"
       y2="0"
       gradientUnits="userSpaceOnUse"
       gradientTransform="matrix(-1527.68,-4383.22,-4383.22,1527.68,22691.2,20052.7)"
       spreadMethod="pad"
       id="linearGradient448"><stop
         style="stop-opacity:1;stop-color:#09005d"
         offset="0"
         id="stop444" /><stop
         style="stop-opacity:1;stop-color:#1a0f91"
         offset="1"
         id="stop446" /></linearGradient><clipPath
       clipPathUnits="userSpaceOnUse"
       id="clipPath458"><path
         d="m 9204.49,5135.8 c -17.16,0 -34.59,3.3 -51.36,10.2 -66.03,27 -96.53,99.9 -68.13,162.8 l 2729.5,6041.9 c 28.4,62.8 104.9,91.8 171,64.8 66.1,-27 96.6,-99.9 68.2,-162.8 L 9324.11,5210.8 c -21.18,-46.9 -69.18,-75 -119.62,-75 z"
         id="path456" /></clipPath><linearGradient
       x1="0"
       y1="0"
       x2="1"
       y2="0"
       gradientUnits="userSpaceOnUse"
       gradientTransform="matrix(2989.91,0,0,-2989.91,9074.37,8280.7)"
       spreadMethod="pad"
       id="linearGradient464"><stop
         style="stop-opacity:1;stop-color:#4f52ff"
         offset="0"
         id="stop460" /><stop
         style="stop-opacity:1;stop-color:#4042e2"
         offset="1"
         id="stop462" /></linearGradient><clipPath
       clipPathUnits="userSpaceOnUse"
       id="clipPath474"><path
         d="m 12279.4,5135.8 c -50.4,0 -98.4,28.1 -119.6,75 l -2729.52,6041.9 c -28.4,62.9 2.1,135.8 68.12,162.8 65.98,27.1 142.56,-1.9 170.99,-64.8 L 12398.9,5308.8 c 28.4,-62.9 -2.1,-135.8 -68.1,-162.8 -16.7,-6.9 -34.2,-10.2 -51.4,-10.2 z"
         id="path472" /></clipPath><linearGradient
       x1="0"
       y1="0"
       x2="1"
       y2="0"
       gradientUnits="userSpaceOnUse"
       gradientTransform="matrix(2989.91,0,0,-2989.91,9419.65,8280.7)"
       spreadMethod="pad"
       id="linearGradient480"><stop
         style="stop-opacity:1;stop-color:#4f52ff"
         offset="0"
         id="stop476" /><stop
         style="stop-opacity:1;stop-color:#4042e2"
         offset="1"
         id="stop478" /></linearGradient><clipPath
       clipPathUnits="userSpaceOnUse"
       id="clipPath490"><path
         d="m 20433.9,5135.8 c -17.1,0 -34.6,3.3 -51.3,10.2 -66.1,27 -96.6,99.9 -68.2,162.8 l 2729.6,6041.9 c 28.4,62.8 104.9,91.8 171,64.8 66,-27 96.5,-99.9 68.1,-162.8 L 20553.6,5210.8 c -21.2,-46.9 -69.2,-75 -119.7,-75 z"
         id="path488" /></clipPath><linearGradient
       x1="0"
       y1="0"
       x2="1"
       y2="0"
       gradientUnits="userSpaceOnUse"
       gradientTransform="matrix(2989.9,0,0,-2989.9,20303.8,8280.7)"
       spreadMethod="pad"
       id="linearGradient496"><stop
         style="stop-opacity:1;stop-color:#4f52ff"
         offset="0"
         id="stop492" /><stop
         style="stop-opacity:1;stop-color:#4042e2"
         offset="1"
         id="stop494" /></linearGradient><clipPath
       clipPathUnits="userSpaceOnUse"
       id="clipPath506"><path
         d="m 23508.9,5135.8 c -50.5,0 -98.5,28.1 -119.7,75 l -2729.5,6041.9 c -28.4,62.9 2.1,135.8 68.1,162.8 66,27.1 142.6,-1.9 171,-64.8 l 2729.5,-6041.9 c 28.5,-62.9 -2,-135.8 -68.1,-162.8 -16.7,-6.9 -34.2,-10.2 -51.3,-10.2 z"
         id="path504" /></clipPath><linearGradient
       x1="0"
       y1="0"
       x2="1"
       y2="0"
       gradientUnits="userSpaceOnUse"
       gradientTransform="matrix(2989.9,0,0,-2989.9,20649.1,8280.7)"
       spreadMethod="pad"
       id="linearGradient512"><stop
         style="stop-opacity:1;stop-color:#4f52ff"
         offset="0"
         id="stop508" /><stop
         style="stop-opacity:1;stop-color:#4042e2"
         offset="1"
         id="stop510" /></linearGradient><clipPath
       clipPathUnits="userSpaceOnUse"
       id="clipPath522"><path
         d="m 24382.4,11539.1 c 8.8,40.3 -3.2,81.9 -33,113.6 -29.8,31.7 -74.1,50 -120.9,50 H 8384.79 c -61.51,0 -118.77,-27.5 -151.91,-73 -33.14,-45.5 -37.58,-102.6 -11.79,-151.6 l 171.69,-326.1 c 39.32,-74.6 124.51,-122.4 218.25,-122.4 H 24119.8 c 87.2,0 162.2,54.2 178.7,129.3 z"
         id="path520" /></clipPath><linearGradient
       x1="0"
       y1="0"
       x2="1"
       y2="0"
       gradientUnits="userSpaceOnUse"
       gradientTransform="matrix(16180.7,0,0,-16180.7,8204.47,11366.1)"
       spreadMethod="pad"
       id="linearGradient528"><stop
         style="stop-opacity:1;stop-color:#4f52ff"
         offset="0"
         id="stop524" /><stop
         style="stop-opacity:1;stop-color:#4042e2"
         offset="1"
         id="stop526" /></linearGradient><clipPath
       clipPathUnits="userSpaceOnUse"
       id="clipPath544"><path
         d="m 11275.1,5413.7 c -510.8,0 -736.8,43.8 -837.9,83.8 19.7,-83.9 94.4,-150.1 188.8,-150.1 h 1807.1 c 60.9,0 99.3,58.2 84.7,111 -206,-16.6 -643.5,-44.7 -1242.7,-44.7 z"
         id="path542" /></clipPath><linearGradient
       x1="0"
       y1="0"
       x2="1"
       y2="0"
       gradientUnits="userSpaceOnUse"
       gradientTransform="matrix(2083.68,0,0,-2083.68,10437.2,5422.4)"
       spreadMethod="pad"
       id="linearGradient550"><stop
         style="stop-opacity:1;stop-color:#4f52ff"
         offset="0"
         id="stop546" /><stop
         style="stop-opacity:1;stop-color:#4042e2"
         offset="1"
         id="stop548" /></linearGradient><clipPath
       clipPathUnits="userSpaceOnUse"
       id="clipPath560"><path
         d="m 12517.8,5458.4 c -2.9,10.6 -7.2,21.1 -14.8,30.7 -137.6,175.8 -414.1,451.8 -790.3,446.5 -551,-7.8 -743.2,-67.6 -1171.4,-3.4 l -101,-334.8 c -10.3,-34.2 -10.5,-68.2 -3.1,-99.9 101.1,-40 327.1,-83.8 837.9,-83.8 599.2,0 1036.7,28.1 1242.7,44.7 z"
         id="path558" /></clipPath><linearGradient
       x1="0"
       y1="0"
       x2="1"
       y2="0"
       gradientUnits="userSpaceOnUse"
       gradientTransform="matrix(-569.317,-3933.47,-3933.47,569.317,12042.6,9429.1)"
       spreadMethod="pad"
       id="linearGradient566"><stop
         style="stop-opacity:1;stop-color:#09005d"
         offset="0"
         id="stop562" /><stop
         style="stop-opacity:1;stop-color:#1a0f91"
         offset="1"
         id="stop564" /></linearGradient><clipPath
       clipPathUnits="userSpaceOnUse"
       id="clipPath576"><path
         d="m 10665.3,6293.1 -124,-421.8 c 0,0 274.7,-125 516.4,-24.6 l 47.4,365.3 z"
         id="path574" /></clipPath><linearGradient
       x1="0"
       y1="0"
       x2="1"
       y2="0"
       gradientUnits="userSpaceOnUse"
       gradientTransform="matrix(563.777,0,0,-563.777,10541.3,6050.3)"
       spreadMethod="pad"
       id="linearGradient582"><stop
         style="stop-opacity:1;stop-color:#febbba"
         offset="0"
         id="stop578" /><stop
         style="stop-opacity:1;stop-color:#ff928e"
         offset="1"
         id="stop580" /></linearGradient><clipPath
       clipPathUnits="userSpaceOnUse"
       id="clipPath592"><path
         d="m 14410.8,5679.3 c -398.2,-320 -601.7,-427.5 -705.4,-459.8 67.6,-52.8 167.1,-57.4 240.7,1.8 l 1408.7,1131.8 c 47.5,38.2 41.1,107.4 -3.1,139.2 -150.3,-141.9 -473.8,-437.7 -940.9,-813 z"
         id="path590" /></clipPath><linearGradient
       x1="0"
       y1="0"
       x2="1"
       y2="0"
       gradientUnits="userSpaceOnUse"
       gradientTransform="matrix(1682.33,0,0,-1682.33,13705.4,5835.4)"
       spreadMethod="pad"
       id="linearGradient598"><stop
         style="stop-opacity:1;stop-color:#4f52ff"
         offset="0"
         id="stop594" /><stop
         style="stop-opacity:1;stop-color:#4042e2"
         offset="1"
         id="stop596" /></linearGradient><clipPath
       clipPathUnits="userSpaceOnUse"
       id="clipPath608"><path
         d="m 15351.7,6492.3 c -8.9,6.4 -18.8,11.9 -30.7,14.6 -216.9,50.2 -604.5,91.1 -894.4,-148.6 -424.8,-351.2 -537.3,-517.9 -911.1,-736.3 l 130,-323.1 c 13.3,-32.9 34.4,-59.5 59.9,-79.4 103.7,32.3 307.2,139.8 705.4,459.8 467.1,375.3 790.6,671.1 940.9,813 z"
         id="path606" /></clipPath><linearGradient
       x1="0"
       y1="0"
       x2="1"
       y2="0"
       gradientUnits="userSpaceOnUse"
       gradientTransform="matrix(-569.317,-3933.47,-3933.47,569.317,14862.6,9021)"
       spreadMethod="pad"
       id="linearGradient614"><stop
         style="stop-opacity:1;stop-color:#09005d"
         offset="0"
         id="stop610" /><stop
         style="stop-opacity:1;stop-color:#1a0f91"
         offset="1"
         id="stop612" /></linearGradient><clipPath
       clipPathUnits="userSpaceOnUse"
       id="clipPath624"><path
         d="m 8012.67,11098.1 c 0,0 3058.23,-249.8 3685.63,-545.1 627.4,-295.3 -512,-4434.7 -512,-4434.7 0,0 -170.8,-82.2 -550.8,36 0,0 389.7,3054.6 99.7,3717 l -3311.3,541.6 z"
         id="path622" /></clipPath><linearGradient
       x1="0"
       y1="0"
       x2="1"
       y2="0"
       gradientUnits="userSpaceOnUse"
       gradientTransform="matrix(-4121.15,-8396.83,-8396.83,4121.15,10522,10745)"
       spreadMethod="pad"
       id="linearGradient630"><stop
         style="stop-opacity:1;stop-color:#09005d"
         offset="0"
         id="stop626" /><stop
         style="stop-opacity:1;stop-color:#1a0f91"
         offset="1"
         id="stop628" /></linearGradient><clipPath
       clipPathUnits="userSpaceOnUse"
       id="clipPath640"><path
         d="m 13211.6,6203.4 c 28.4,-25.9 303.9,-581.4 303.9,-581.4 0,0 306.7,66.3 369.2,260.4 l -275.9,501.4 z"
         id="path638" /></clipPath><linearGradient
       x1="0"
       y1="0"
       x2="1"
       y2="0"
       gradientUnits="userSpaceOnUse"
       gradientTransform="matrix(673.074,0,0,-673.074,13211.6,6002.9)"
       spreadMethod="pad"
       id="linearGradient646"><stop
         style="stop-opacity:1;stop-color:#febbba"
         offset="0"
         id="stop642" /><stop
         style="stop-opacity:1;stop-color:#ff928e"
         offset="1"
         id="stop644" /></linearGradient><clipPath
       clipPathUnits="userSpaceOnUse"
       id="clipPath656"><path
         d="m 6170.7,11123.6 c 0,0 -99.66,-239.8 -95.59,-558.5 5.62,-440.7 359.94,-798.3 800.14,-820.3 l 3615.35,-164.9 c 76.4,-3.5 141,-56.3 160.1,-130.3 84.9,-328.6 500.2,-1337.7 2530.1,-3351.4 54,-53.6 138.2,-62.7 202.5,-22 l 288.9,182.5 c 30.4,19.2 40.1,58.9 21.9,89.9 l -2105,3594.7 c -110.6,182.4 -288.3,314.2 -495,367.1 l -3081.43,787.7 z"
         id="path654" /></clipPath><linearGradient
       x1="0"
       y1="0"
       x2="1"
       y2="0"
       gradientUnits="userSpaceOnUse"
       gradientTransform="matrix(-4899.58,-5555.16,-5555.16,4899.58,16667.9,16338.3)"
       spreadMethod="pad"
       id="linearGradient662"><stop
         style="stop-opacity:1;stop-color:#09005d"
         offset="0"
         id="stop658" /><stop
         style="stop-opacity:1;stop-color:#1a0f91"
         offset="1"
         id="stop660" /></linearGradient><clipPath
       clipPathUnits="userSpaceOnUse"
       id="clipPath672"><path
         d="m 6160.94,11134.2 c 0,0 -35.84,1791.9 322.38,3478.3 132.28,622.7 476.55,1180.3 976.61,1574.3 l 167.3,131.8 837.88,-340.4 430.59,-744 c 237.04,-474.1 178.83,-1503.7 0,-2002.6 -299.02,-834.3 -538.15,-1698.9 -640.07,-2123.6 0,0 -1387.73,-183.3 -2094.69,26.2 z"
         id="path670" /></clipPath><linearGradient
       x1="0"
       y1="0"
       x2="1"
       y2="0"
       gradientUnits="userSpaceOnUse"
       gradientTransform="matrix(4584.78,-7572.6,7572.6,4584.78,-70203,141588)"
       spreadMethod="pad"
       id="linearGradient678"><stop
         style="stop-opacity:1;stop-color:#ff928e"
         offset="0"
         id="stop674" /><stop
         style="stop-opacity:1;stop-color:#fe7062"
         offset="1"
         id="stop676" /></linearGradient><clipPath
       clipPathUnits="userSpaceOnUse"
       id="clipPath688"><path
         d="m 8203.27,17654 -654.59,-1518.7 c 0,0 209.46,-471.3 942.61,-288 l 261.84,1047.3 z"
         id="path686" /></clipPath><linearGradient
       x1="0"
       y1="0"
       x2="1"
       y2="0"
       gradientUnits="userSpaceOnUse"
       gradientTransform="matrix(1204.45,0,0,-1204.45,7548.68,16729.5)"
       spreadMethod="pad"
       id="linearGradient694"><stop
         style="stop-opacity:1;stop-color:#febbba"
         offset="0"
         id="stop690" /><stop
         style="stop-opacity:1;stop-color:#ff928e"
         offset="1"
         id="stop692" /></linearGradient><clipPath
       clipPathUnits="userSpaceOnUse"
       id="clipPath704"><path
         d="m 9500.51,18346.6 c 7.89,-21.2 25.23,-1517.4 25.23,-1517.4 l -854.51,8.2 -227.12,1415.7 c 0,0 924.28,448.6 1056.4,93.5 z"
         id="path702" /></clipPath><linearGradient
       x1="0"
       y1="0"
       x2="1"
       y2="0"
       gradientUnits="userSpaceOnUse"
       gradientTransform="matrix(-816.938,-2726.92,-2726.92,816.938,9188.25,18219.8)"
       spreadMethod="pad"
       id="linearGradient710"><stop
         style="stop-opacity:1;stop-color:#febbba"
         offset="0"
         id="stop706" /><stop
         style="stop-opacity:1;stop-color:#ff928e"
         offset="1"
         id="stop708" /></linearGradient><clipPath
       clipPathUnits="userSpaceOnUse"
       id="clipPath720"><path
         d="m 8694.75,17980.8 61.2,-754.5 c 0.78,-9.7 2.8,-19 6.18,-28.1 20.64,-55.7 105.73,-242.2 291.23,-143.5 168.32,89.5 323.28,168.7 444.34,158.5 54.35,-4.5 96.28,-49.5 96.9,-104.1 1.54,-135.9 -0.65,-442.3 -43.17,-708.2 -8.63,-54 -57.48,-91.9 -112,-88 -164.23,11.6 -509.95,45.9 -781.61,138.6 -36.82,12.5 -63.87,43.8 -70.49,82.1 -32.21,186.9 -132.24,754.5 -184.58,908.3 -49.12,144.4 -250.06,193.9 -335.92,208.6 -28.15,4.8 -52.86,20.9 -68.8,44.5 -56.38,83.8 -152.64,285 95.82,429.6 52,30.3 68.44,97 36.6,148 -63.4,101.7 -116.45,266.2 70.27,403.6 189.78,139.6 370.94,61.5 475.35,-11.2 42.23,-29.4 98.42,-23.2 135.13,12.9 20.89,20.5 50.99,32.3 93.74,16.9 57.59,-20.6 120.15,15.5 134.73,74.9 28,114.2 106.64,247 319.98,256.2 378.57,16.4 507.37,-379.2 462.31,-637 -45.06,-257.9 -456.52,-252.4 -678.96,-175.4 -169.14,58.6 -342.47,-78.6 -415.84,-147.7 -23.24,-21.9 -35,-53.1 -32.41,-85 z"
         id="path718" /></clipPath><linearGradient
       x1="0"
       y1="0"
       x2="1"
       y2="0"
       gradientUnits="userSpaceOnUse"
       gradientTransform="matrix(1921.76,715.02,715.02,-1921.76,8150.59,17249.2)"
       spreadMethod="pad"
       id="linearGradient726"><stop
         style="stop-opacity:1;stop-color:#09005d"
         offset="0"
         id="stop722" /><stop
         style="stop-opacity:1;stop-color:#1a0f91"
         offset="1"
         id="stop724" /></linearGradient><clipPath
       clipPathUnits="userSpaceOnUse"
       id="clipPath736"><path
         d="m 8427.78,17167.4 c 0,0 59.23,452.7 -117.21,522.3 -176.44,69.6 -393.25,-33.2 -277.16,-326.8 144.4,-365.2 394.37,-195.5 394.37,-195.5 z"
         id="path734" /></clipPath><linearGradient
       x1="0"
       y1="0"
       x2="1"
       y2="0"
       gradientUnits="userSpaceOnUse"
       gradientTransform="matrix(797.819,1804.03,1804.03,-797.819,7459.07,15657.6)"
       spreadMethod="pad"
       id="linearGradient742"><stop
         style="stop-opacity:1;stop-color:#febbba"
         offset="0"
         id="stop738" /><stop
         style="stop-opacity:1;stop-color:#ff928e"
         offset="1"
         id="stop740" /></linearGradient><clipPath
       clipPathUnits="userSpaceOnUse"
       id="clipPath752"><path
         d="m 10220.1,12573.4 c -2157.95,-677.4 -2043.15,2359.9 -2057.13,2381.2 -855.46,1307.3 -1335.82,-434.8 -1252.92,-680.4 758.76,-2747 2671.53,-2611 3416.85,-2071.4 -92.8,144.4 -114,271.5 -106.8,370.6 z"
         id="path750" /></clipPath><linearGradient
       x1="0"
       y1="0"
       x2="1"
       y2="0"
       gradientUnits="userSpaceOnUse"
       gradientTransform="matrix(4584.76,-7572.58,7572.58,4584.76,-69429.2,142057)"
       spreadMethod="pad"
       id="linearGradient758"><stop
         style="stop-opacity:1;stop-color:#ff928e"
         offset="0"
         id="stop754" /><stop
         style="stop-opacity:1;stop-color:#fe7062"
         offset="1"
         id="stop756" /></linearGradient><clipPath
       clipPathUnits="userSpaceOnUse"
       id="clipPath768"><path
         d="m 8565.86,13042 c -11.9,3.7 -22.63,11.4 -29.9,22.7 -326.96,509.5 -419.22,1217.5 -439.06,1721.8 -1.19,30.3 22.41,55.8 52.7,57 30.31,1.2 55.82,-22.4 57.01,-52.7 15.8,-401.7 91.58,-1152.3 421.77,-1666.8 16.37,-25.5 8.95,-59.4 -16.56,-75.8 -14.2,-9.1 -31,-10.9 -45.96,-6.2 z"
         id="path766" /></clipPath><linearGradient
       x1="0"
       y1="0"
       x2="1"
       y2="0"
       gradientUnits="userSpaceOnUse"
       gradientTransform="matrix(12868.5,10354.4,10354.4,-12868.5,-43567.2,-27846.3)"
       spreadMethod="pad"
       id="linearGradient774"><stop
         style="stop-opacity:1;stop-color:#e1473d"
         offset="0"
         id="stop770" /><stop
         style="stop-opacity:1;stop-color:#e9605a"
         offset="1"
         id="stop772" /></linearGradient><clipPath
       clipPathUnits="userSpaceOnUse"
       id="clipPath784"><path
         d="m 7963.26,12351.8 c -6.76,2.1 -13.22,5.5 -18.97,10.3 -493.18,413.3 -864.77,1062.7 -1104.4,1930.3 -8.07,29.2 9.08,59.5 38.3,67.5 29.23,8.1 59.46,-9.1 67.53,-38.3 233.6,-845.7 593.29,-1476.6 1069.09,-1875.3 23.24,-19.5 26.29,-54.1 6.82,-77.4 -14.65,-17.4 -37.88,-23.5 -58.37,-17.1 z"
         id="path782" /></clipPath><linearGradient
       x1="0"
       y1="0"
       x2="1"
       y2="0"
       gradientUnits="userSpaceOnUse"
       gradientTransform="matrix(12868.5,10354.4,10354.4,-12868.5,-43646.8,-27747.3)"
       spreadMethod="pad"
       id="linearGradient790"><stop
         style="stop-opacity:1;stop-color:#e1473d"
         offset="0"
         id="stop786" /><stop
         style="stop-opacity:1;stop-color:#e9605a"
         offset="1"
         id="stop788" /></linearGradient><clipPath
       clipPathUnits="userSpaceOnUse"
       id="clipPath800"><path
         d="m 11490.4,13207.6 c 0,0 -35.1,-55.9 -287.7,-251.7 -252.7,-195.8 -507,-308.7 -313.9,-39.7 193.2,269.1 99.2,407.9 -121.3,118.1 -220.4,-289.8 -378,-401.8 -378,-401.8 -58,-22.2 -114.4,-41.8 -169.4,-59.1 -7.2,-99.1 14,-226.2 106.8,-370.6 87.4,29 136.8,50.3 136.8,50.3 0,0 668.3,121.6 811.4,406.2 143.2,284.5 215.3,548.3 215.3,548.3 z"
         id="path798" /></clipPath><linearGradient
       x1="0"
       y1="0"
       x2="1"
       y2="0"
       gradientUnits="userSpaceOnUse"
       gradientTransform="matrix(-2060.57,-5357.48,-5357.48,2060.57,13554.9,19894.3)"
       spreadMethod="pad"
       id="linearGradient806"><stop
         style="stop-opacity:1;stop-color:#febbba"
         offset="0"
         id="stop802" /><stop
         style="stop-opacity:1;stop-color:#ff928e"
         offset="1"
         id="stop804" /></linearGradient></defs><sodipodi:namedview
     pagecolor="#ffffff"
     bordercolor="#666666"
     borderopacity="1"
     objecttolerance="10"
     gridtolerance="10"
     guidetolerance="10"
     inkscape:pageopacity="0"
     inkscape:pageshadow="2"
     inkscape:window-width="640"
     inkscape:window-height="480"
     id="namedview4" /><g
     id="g10"
     inkscape:groupmode="layer"
     inkscape:label="ink_ext_XXXXXX"
     transform="matrix(1.3333333,0,0,-1.3333333,0,4946.6667)"><g
       id="g12"
       transform="scale(0.1)"><path
         d="M 0,0 H 37100 V 37100 H 0 Z"
         style="fill:#ffffff;fill-opacity:1;fill-rule:nonzero;stroke:none"
         id="path14" /><g
         id="g16"><g
           id="g18"
           clip-path="url(#clipPath22)"><path
             d="m 18970.7,4550 c -1714.4,0 -3024,236.3 -3546.4,340.9 -1894.3,379.3 -5556.03,1112.5 -8203.4,4181.6 -4005.24,4643.4 -3381.57,11958.8 -274.83,16787.9 568.27,883.3 3570.03,5785.9 9671.13,6572.1 605.6,78.1 1228.2,117.5 1858.7,117.5 3214,0 6648.8,-1023.5 9254.5,-3175.7 429.7,-354.8 829,-733.4 1199.1,-1132.4 -140.6,42.5 -289.5,65.3 -443.6,65.3 -11.8,0 -23.6,-0.1 -35.4,-0.4 l -13035.3,-295.3 c -719.1,-16.3 -1299.4,-593.3 -1319.6,-1312.3 l -151.4,-5363.5 c -1345.2,2308.9 -1915.8,5892.5 -2097.9,7315.7 -11,85.6 -80.9,131.7 -151.1,131.7 -57.9,0 -116,-31.5 -141,-98.3 -1618.29,-4318.6 -2076.19,-7724.4 -1880.36,-10396 -1153.77,1801.9 -2136.5,3616.6 -2362.56,4917.1 -9.58,55.2 -53.31,80.9 -102.57,80.9 -62.72,0 -134.41,-41.6 -155.99,-116.7 -413.3,-1437.8 -1156.74,-5055.7 418.58,-8763.8 1446.71,-3405.3 4482.8,-5167 6110.8,-5899 l -20.6,-728.6 c -15.8,-561.2 434.9,-1024.2 995.7,-1024.2 1.5,0 3,0 4.5,0 l 12717,56.9 C 24408,4991.2 21312.2,4550 18970.7,4550 m 13666.6,12112.9 c -110.1,1985.3 -434.5,3667.6 -260.6,4541.9 291.7,-1510 371.4,-3051.3 260.6,-4541.9 m -2438.1,2147.6 -181.2,7998.2 c -0.7,31.2 -2.3,62.1 -4.8,92.7 1169.4,-1662.9 1930.7,-3568.5 2330.8,-5532.1 -22.7,15.3 -51.1,24.1 -80.3,24.1 -29.7,0 -60.1,-9.1 -85.9,-30 -496.5,-402.7 -1373.4,-1243.9 -1978.6,-2552.9"
             style="fill:url(#linearGradient28);fill-opacity:1;fill-rule:nonzero;stroke:none"
             id="path30" /></g></g><path
         d="m 32389.2,21262.9 c 24.4,104 -121.8,173.1 -211.4,100.5 -909.3,-737.4 -3094.3,-2945.7 -2549.8,-6804.8 683.2,-4841.8 -484.8,-6608.5 -1938.7,-7686.2 0,0 1996.7,506.8 3252.9,2299.5 3084.3,4401.6 1012.8,10242.5 1447,12091"
         style="fill:#91b3fa;fill-opacity:1;fill-rule:nonzero;stroke:none"
         id="path32" /><path
         d="m 30417.4,9182.1 -11.6,510.4 c 53,103.3 102.9,207.7 149.6,312.9 107.9,251.5 194.2,509.3 257.2,772.1 62.7,262.8 102.2,530.1 124,799.6 43.7,539.3 24,1085.6 7.1,1633.5 -16.1,548 -27.9,1098.8 -13.5,1649.2 6.4,275.1 18.5,550.2 36.3,824.9 8,137.4 19,274.6 29.8,411.8 12.3,137.2 25.5,274.2 40,411.2 59,547.7 137.3,1093.5 235.6,1636.5 101.2,542.6 219.1,1082.6 360.8,1617.9 3.5,13.1 17.1,22.1 32.1,22.1 2.4,0 4.9,-0.3 7.3,-0.8 17.2,-3.4 28.2,-17.9 25.1,-32.8 -113.8,-539 -215.2,-1079.6 -293.6,-1622.7 -81.6,-542.7 -144.2,-1087.2 -187,-1632.6 -40.3,-545.5 -68.9,-1091.6 -70.5,-1638 -4.5,-546.3 18.2,-1092.1 43.3,-1640.1 21.4,-547.8 46.7,-1099.5 6.6,-1655.1 -39.5,-554.6 -156.2,-1113.9 -387.8,-1638.2 -57.9,-130.7 -118.8,-261 -188,-386.9 -62.9,-120.2 -131.6,-238.1 -202.8,-354.9"
         style="fill:#c0d6fc;fill-opacity:1;fill-rule:nonzero;stroke:none"
         id="path34" /><path
         d="m 14668.2,8083.7 c 0,0 587.7,2305.8 -1162.6,4752.7 -1623.9,2270.3 -5702.11,7537.9 -6194.32,10369.5 -21.79,125.5 -220.03,98.3 -258.56,-35.8 -413.3,-1437.8 -1156.74,-5055.7 418.58,-8763.8 2031.44,-4781.7 7196.9,-6322.6 7196.9,-6322.6"
         style="fill:#91b3fa;fill-opacity:1;fill-rule:nonzero;stroke:none"
         id="path36" /><path
         d="m 13608.9,9454.9 c -46.4,66.8 -96.2,136.1 -149.5,207.7 -159.2,215.1 -350.4,449.3 -561.9,702.6 -424.3,505.6 -939.5,1080 -1479.3,1706.8 -268.8,314.2 -544.2,641.3 -819.6,977.4 -275.5,336 -549.1,682.3 -818.73,1032.1 -135.06,175.3 -267.78,350.2 -399.36,527.2 -64.53,89.6 -128.89,178.9 -193.08,268.1 -61.45,91 -122.7,181.8 -183.66,272.3 -239.01,365 -454.4,737.5 -638.6,1110.1 -184.53,372.4 -342.03,742.9 -466.7,1102.8 -125.44,359.7 -222.91,706.8 -293.85,1031.3 -71.34,324.4 -118.08,625.7 -144.01,894 -26.77,268.3 -35.83,503.3 -35.62,696.7 0.1,193.4 11.07,345 20.96,448 10.03,103 19.59,157.5 19.59,157.5 0.15,1 1.06,1.8 2.08,1.8 0.11,0 0.22,0 0.33,-0.1 1.14,-0.1 1.92,-1.2 1.78,-2.3 0,0 -7.04,-54.6 -12.31,-157.7 -5.27,-103.1 -8.41,-254.5 -2.62,-446.8 6.48,-192.3 23.58,-425.5 59.37,-690.8 36.49,-265.2 88.78,-562.8 166.36,-882.7 77.37,-319.9 181.41,-661.5 313.32,-1014.4 132.79,-352.6 290.35,-717.9 478.04,-1083.5 187.73,-365.4 401.41,-733 639.9,-1092.6 60.81,-89.1 121.88,-178.6 183.13,-268.3 63.89,-87.8 128.02,-175.9 192.25,-264.2 130.27,-175.5 263.92,-351.8 397.78,-525.8 267.95,-349 542.15,-693.6 814.65,-1030.5 272.6,-336.9 545.3,-664.9 811.8,-980.3 530.6,-633 1037.3,-1215 1456,-1728.3 209.6,-256.5 393.5,-498.8 549.4,-718.8 33.1,-46.9 64.8,-92.8 95.2,-137.7 l -3.1,-111.6"
         style="fill:#c3d5fc;fill-opacity:1;fill-rule:nonzero;stroke:none"
         id="path38" /><path
         d="m 11554.2,28684.8 c 55.3,147.6 272.1,122.9 292.1,-33.4 193.4,-1511.1 824.6,-5457.6 2356,-7728 2493.4,-3696.8 3692.8,-9280 1384.5,-11740.3 0,0 -10057.07,3424.5 -4032.6,19501.7"
         style="fill:#bdd0fb;fill-opacity:1;fill-rule:nonzero;stroke:none"
         id="path40" /><path
         d="m 13734.7,13912.7 c -0.1,0 -0.1,0.1 -0.1,0.2 -17.7,48.8 -35.4,98.1 -53.3,147.7 -35.9,99.3 -72.3,200.1 -109.2,302.3 -146.1,409.2 -286.3,845.7 -421.1,1300.1 -17,56.7 -34.1,113.7 -51.3,170.9 -16.1,57.5 -32.2,115.3 -48.4,173.3 -32.3,115.9 -64.9,232.6 -97.6,350.1 -33.9,117.2 -62.8,236.4 -93.9,355.7 -30.8,119.4 -61.7,239.4 -92.7,359.9 -58.7,241.7 -116.6,485.8 -173.7,731 -26.7,123 -53.5,246.2 -80.3,369.6 -26.6,123.4 -53.9,246.8 -77.7,370.9 -48.9,247.9 -100.3,495.3 -144.1,743.2 -22.7,123.8 -45.3,247.4 -67.9,370.5 -20.9,123.5 -41.7,246.6 -62.5,369.2 -83.7,490.4 -154.2,974.9 -220.1,1443.9 -61.8,469.7 -117.1,924.2 -161.9,1356.1 -46.9,431.6 -82.8,840.5 -114.9,1218 -60.6,755.4 -91.3,1386.2 -107.6,1827.9 -7.3,220.9 -11.9,394.4 -12.9,513 -1.1,58.8 -0.3,105.9 -0.4,136.7 1,30.6 1.6,46.4 1.6,46.4 0.3,9.3 7.9,16.5 17.1,16.5 0.2,0 0.4,0 0.6,0 9.4,-0.3 16.7,-8.1 16.5,-17.4 v -1.9 c 0,0 -0.3,-15.8 -0.8,-46.3 0.7,-30.2 0.6,-73.9 2.7,-133.3 2.8,-118.1 10.2,-291.4 21,-511.8 12,-220.3 27.2,-487.9 50,-794.5 21.1,-306.7 52,-652.2 84.6,-1029.1 35.5,-376.6 75,-784.5 125.7,-1215 48.1,-430.8 108.8,-883.9 172.7,-1352.3 67.3,-468 139.1,-951.3 224,-1440.3 21.1,-122.3 42.2,-245.1 63.4,-368.2 22.9,-122.8 45.9,-246 68.9,-369.4 44.4,-247.2 96.5,-493.9 146,-741.1 49.2,-247.2 107.1,-492.6 158.8,-738.2 56.1,-244.7 113,-488.3 170.7,-729.6 30.5,-120.2 60.9,-239.9 91.1,-359.1 30.7,-119 59.1,-238.1 92.4,-355 32.3,-117.2 64.4,-233.7 96.2,-349.4 15.9,-57.8 31.8,-115.4 47.6,-172.8 16.9,-57.1 33.8,-114 50.6,-170.6 33.8,-113.2 67.3,-225.4 100.5,-336.6 16.7,-55.5 33.4,-110.8 49.9,-165.8 17.8,-54.6 35.4,-109 53,-163 34.9,-108.2 69.4,-215.3 103.5,-321 17.2,-52.8 33.4,-105.6 51,-157.5 18.1,-51.8 36.1,-103.3 53.9,-154.4 28.7,-82.1 57,-163.2 85,-243.5 l -6.6,-236"
         style="fill:#d9e4fd;fill-opacity:1;fill-rule:nonzero;stroke:none"
         id="path42" /><g
         id="g44"><g
           id="g46"
           clip-path="url(#clipPath50)"><path
             d="m 14557.2,6754.5 c -560.8,0 -1011.5,463 -995.7,1024.2 l 20.6,728.6 26.8,947.6 3.1,111.6 21.1,746.8 101.6,3599.4 6.6,236 202.9,7187 151.4,5363.5 c 20.2,719 600.5,1296 1319.6,1312.3 l 13035.3,295.3 c 11.8,0.3 23.6,0.4 35.4,0.4 154.1,0 303,-22.8 443.6,-65.3 589.1,-178.2 1031,-702.2 1083.7,-1340.5 2.5,-30.6 4.1,-61.5 4.8,-92.7 l 181.2,-7998.2 206.6,-9118 11.6,-510.4 14.4,-634.3 17.2,-759.4 c 11.9,-528.8 -412.2,-964.6 -941.1,-967 l -2229.2,-10 -12717,-56.9 c -1.5,0 -3,0 -4.5,0 m 883.1,20597.9 c -221.2,0 -405,-175.1 -411.8,-398.9 L 14449.7,7947.7 c -8,-260.6 195.8,-478.7 456.4,-488.2 1302.6,-47.5 5087.9,-173.7 8546.3,-173.7 2200.6,0 4268.5,51.1 5481.4,206 189.9,24.2 330.7,187.7 327.5,379.1 l -334.5,19941.5 c -4.1,246.7 -206.1,438.2 -444.3,438.2 -23.3,0 -46.9,-1.8 -70.7,-5.6 -1541.8,-244.8 -6351.6,-945.1 -10911.8,-945.1 -688.8,0 -1371.7,16 -2036.9,51.9 -7.6,0.4 -15.2,0.6 -22.8,0.6"
             style="fill:url(#linearGradient56);fill-opacity:1;fill-rule:nonzero;stroke:none"
             id="path58" /></g></g><g
         id="g60"><g
           id="g62"
           clip-path="url(#clipPath66)"><path
             d="m 23452.4,7285.8 c -3458.4,0 -7243.7,126.2 -8546.3,173.7 -260.6,9.5 -464.4,227.6 -456.4,488.2 l 578.8,19005.8 c 6.8,223.8 190.6,398.9 411.8,398.9 7.6,0 15.2,-0.2 22.8,-0.6 665.2,-35.9 1348.1,-51.9 2036.9,-51.9 4560.2,0 9370,700.3 10911.8,945.1 23.8,3.8 47.4,5.6 70.7,5.6 238.2,0 440.2,-191.5 444.3,-438.2 l 334.5,-19941.5 c 3.2,-191.4 -137.6,-354.9 -327.5,-379.1 -1212.9,-154.9 -3280.8,-206 -5481.4,-206 m -7703.1,19603.5 c -212.9,0 -389.8,-168.6 -396.4,-383.9 l -557,-18290.2 c -7.6,-250.7 188.5,-460.6 439.2,-469.7 1253.6,-45.8 4896.4,-167.2 8224.6,-167.2 2117.7,0 4107.7,49.1 5275,198.2 182.7,23.3 318.2,180.6 315.1,364.8 l -321.9,19190.6 c -4,237.5 -198.4,421.7 -427.6,421.7 -22.4,0 -45.1,-1.7 -68,-5.4 -1483.7,-235.5 -6112.5,-909.4 -10500.9,-909.4 -662.8,0 -1320,15.3 -1960.3,49.9 -7.3,0.4 -14.6,0.6 -21.8,0.6"
             style="fill:url(#linearGradient72);fill-opacity:1;fill-rule:nonzero;stroke:none"
             id="path74" /></g></g><path
         d="m 28232.3,27748.2 c -1707.8,-271.1 -7582.3,-1123 -12461.2,-859.5 -222.5,12 -411.4,-160.6 -418.2,-383.3 l -557,-18290.2 c -7.6,-250.7 188.5,-460.6 439.2,-469.7 2051.2,-74.9 10497.7,-352.3 13499.6,31 182.7,23.3 318.2,180.6 315.1,364.8 l -321.9,19190.6 c -4.3,260.7 -238.1,457.2 -495.6,416.3"
         style="fill:#91b3fa;fill-opacity:1;fill-rule:nonzero;stroke:none"
         id="path76" /><path
         d="m 23200.2,21610.4 c -221.5,0 -429.8,2.4 -617.1,7.9 -144.6,4.3 -261.4,118.5 -269.5,262.8 -41,734 -142.6,2870.5 4.5,3768 23.8,145 145.4,253.6 292.1,262 l 4283.8,247.1 c 5.3,0.3 10.4,0.4 15.6,0.4 147.5,0 268,-121.6 264.4,-271.1 l -93.2,-3920.6 c -3.1,-130.4 -106,-236.4 -236.2,-243 -618.6,-31.5 -2354.6,-113.5 -3644.4,-113.5"
         style="fill:#e7eefe;fill-opacity:1;fill-rule:nonzero;stroke:none"
         id="path78" /><g
         id="g80"><g
           id="g82"
           clip-path="url(#clipPath86)"><path
             d="m 23896.9,24412.3 c 10.5,-465 396,-833.4 861,-822.8 464.9,10.5 833.4,396 822.8,861 -10.5,464.9 -396,833.4 -861,822.8 -465,-10.5 -833.4,-396 -822.8,-861"
             style="fill:url(#linearGradient92);fill-opacity:1;fill-rule:nonzero;stroke:none"
             id="path94" /></g></g><g
         id="g96"><g
           id="g98"
           clip-path="url(#clipPath102)"><path
             d="m 26073.6,21988.5 -2682.3,-60.8 c -164.4,-3.7 -267.1,175.6 -181.6,316.2 219.7,361.7 684.5,896.2 1510.6,891.3 796.2,-4.8 1278.5,-467.2 1523.3,-801.1 103.9,-141.7 5.7,-341.6 -170,-345.6"
             style="fill:url(#linearGradient108);fill-opacity:1;fill-rule:nonzero;stroke:none"
             id="path110" /></g></g><path
         d="m 16437,25303.2 c -74,0 -133.7,57.1 -133.2,128.4 0.5,72.3 62.6,134 138.1,137 l 4730.2,191.6 c 2,0 3.9,0.1 5.8,0.1 71.9,0 111.6,-55.2 88.8,-125.2 l -30.6,-93.6 c -23.5,-71.8 -104.5,-132 -180.1,-133.7 l -4615.7,-104.6 c -1.1,0 -2.2,0 -3.3,0"
         style="fill:#d3e1fd;fill-opacity:1;fill-rule:nonzero;stroke:none"
         id="path112" /><path
         d="m 16453.6,24573.1 c -74.1,0 -133.7,57.1 -133.3,128.4 0.5,72.3 62.7,133.9 138.2,137 l 4730.1,191.5 c 2,0.1 3.9,0.2 5.9,0.2 71.8,0 111.6,-55.2 88.7,-125.2 l -30.6,-93.6 c -23.5,-71.8 -104.5,-132 -180,-133.7 l -4615.8,-104.6 c -1.1,0 -2.2,0 -3.2,0"
         style="fill:#d3e1fd;fill-opacity:1;fill-rule:nonzero;stroke:none"
         id="path114" /><path
         d="m 16470.3,23832.3 c -74,0 -133.6,57.2 -133.2,128.4 0.5,72.3 62.7,134 138.2,137.1 l 4730.1,191.5 c 2,0.1 3.9,0.1 5.8,0.1 71.9,0 111.7,-55.2 88.8,-125.1 l -30.6,-93.7 c -23.5,-71.8 -104.5,-132 -180,-133.7 l -4615.8,-104.5 c -1.1,-0.1 -2.2,-0.1 -3.3,-0.1"
         style="fill:#d3e1fd;fill-opacity:1;fill-rule:nonzero;stroke:none"
         id="path116" /><path
         d="m 16554.2,21657.9 c -160.2,0 -292.6,126.6 -300,287.9 -25,549.9 62.8,1071.4 128.2,1372.1 33.6,154.9 170.1,265.3 328.5,266.7 133.4,1.1 305.7,2.2 488.7,2.2 329.7,0 694.2,-3.5 927.8,-16.1 134.6,-7.2 236.9,-123.8 227.4,-258.3 l -91.9,-1300.4 c -12,-169.2 -149.9,-302.1 -319.4,-307.8 l -1379.1,-46.1 c -3.4,-0.1 -6.8,-0.2 -10.2,-0.2"
         style="fill:#d3e1fd;fill-opacity:1;fill-rule:nonzero;stroke:none"
         id="path118" /><path
         d="m 18982.8,22929.9 c -74,0 -134.5,57.1 -135.1,128.3 -0.6,72.3 60.6,135.1 136,139.5 l 2198.3,129.2 c 2.8,0.1 5.5,0.2 8.2,0.2 71,0 119.4,-56 108.5,-128 l -12.3,-81.7 c -11.3,-74.7 -82.3,-137.2 -157.9,-139 l -2142.4,-48.5 c -1.1,0 -2.2,0 -3.3,0"
         style="fill:#d3e1fd;fill-opacity:1;fill-rule:nonzero;stroke:none"
         id="path120" /><path
         d="m 21142.8,22120.9 c -0.6,0 -1.3,0 -2,0 l -2142.8,29.8 c -75.5,1.1 -135.6,61 -133.6,133.3 2.1,72.3 65.5,132.8 141.1,134.4 l 2201.5,48.7 c 1.1,0 2.1,0 3.1,0 73.9,0 122.6,-58.7 108.8,-131.9 l -15.3,-81.2 c -13.8,-73.6 -85.9,-133.1 -160.8,-133.1"
         style="fill:#d3e1fd;fill-opacity:1;fill-rule:nonzero;stroke:none"
         id="path122" /><path
         d="m 16094.6,20249.7 c -74,0 -131.4,57.2 -128.3,128.5 3.1,72.4 67.4,133.5 143,135.8 l 11042.7,337.3 c 1.8,0.1 3.5,0.1 5.2,0.1 71.4,0 93.6,-46.5 49,-105.3 l -106.1,-139.6 c -45.7,-60.1 -144.9,-110.7 -220.4,-112.4 l -10781.8,-244.3 c -1.1,0 -2.2,-0.1 -3.3,-0.1"
         style="fill:#d3e1fd;fill-opacity:1;fill-rule:nonzero;stroke:none"
         id="path124" /><path
         d="m 16111.2,19519.6 c -74,0 -131.5,57.2 -128.4,128.5 3.1,72.4 67.5,133.5 143,135.8 l 11042.7,337.3 c 1.8,0 3.5,0.1 5.3,0.1 71.4,0 93.6,-46.5 48.9,-105.3 l -106,-139.6 c -45.8,-60.1 -145,-110.8 -220.5,-112.5 l -10781.8,-244.2 c -1.1,-0.1 -2.1,-0.1 -3.2,-0.1"
         style="fill:#d3e1fd;fill-opacity:1;fill-rule:nonzero;stroke:none"
         id="path126" /><path
         d="m 26081.6,17505.8 c -117,0 -213.8,92.5 -219.1,210.2 -18.3,401.7 45.8,782.6 93.6,1002.2 24.5,113 124.2,193.7 239.9,194.7 97.4,0.8 223.2,1.6 356.8,1.6 240.9,0 507.1,-2.5 677.7,-11.7 98.3,-5.3 173,-90.5 166,-188.7 l -67,-949.7 c -8.8,-123.6 -109.5,-220.6 -233.3,-224.8 L 26089,17506 c -2.5,-0.1 -4.9,-0.2 -7.4,-0.2"
         style="fill:#adc6fb;fill-opacity:1;fill-rule:nonzero;stroke:none"
         id="path128" /><path
         d="m 22851.8,17955.9 c -74.1,0 -134.9,59.8 -135.6,134.3 l -0.8,72.1 c -0.7,75.6 60.3,141.4 135.7,146.2 l 2540.6,163.9 c 3,0.2 6,0.3 8.9,0.3 70.7,0 120.1,-55.7 110.9,-127.7 l -24.6,-193.5 c -9.5,-75 -79.1,-137.7 -154.6,-139.4 l -2477.4,-56.2 c -1,0 -2.1,0 -3.1,0"
         style="fill:#d3e1fd;fill-opacity:1;fill-rule:nonzero;stroke:none"
         id="path130" /><path
         d="m 20593.6,17381.5 c -117,0 -213.8,92.4 -219.1,210.2 -18.3,401.6 45.8,782.5 93.5,1002.1 24.6,113.1 124.3,193.7 240,194.8 97.4,0.8 223.1,1.6 356.7,1.6 240.9,0 507.1,-2.5 677.8,-11.8 98.3,-5.2 173,-90.4 166,-188.6 l -67.1,-949.7 c -8.7,-123.6 -109.4,-220.7 -233.3,-224.8 l -1007.1,-33.7 c -2.5,-0.1 -5,-0.1 -7.4,-0.1"
         style="fill:#adc6fb;fill-opacity:1;fill-rule:nonzero;stroke:none"
         id="path132" /><path
         d="m 17363.8,17831.6 c -74.2,0 -134.9,59.7 -135.7,134.3 l -0.7,72.1 c -0.8,75.5 60.3,141.3 135.7,146.2 l 2540.6,163.9 c 3,0.2 6,0.3 8.9,0.3 70.7,0 120,-55.8 110.9,-127.7 l -24.6,-193.6 c -9.5,-74.9 -79.1,-137.7 -154.7,-139.4 l -2477.3,-56.1 c -1.1,0 -2.1,0 -3.1,0"
         style="fill:#d3e1fd;fill-opacity:1;fill-rule:nonzero;stroke:none"
         id="path134" /><path
         d="m 16795.4,15384.7 c -74,0 -131.6,57.1 -128.6,128.5 3,72.3 67.2,133.4 142.7,135.8 l 10725.9,330 c 1.7,0.1 3.5,0.1 5.2,0.1 71.4,0 94.3,-47 50.5,-106.4 l -101.3,-137.1 c -44.8,-60.8 -143.4,-111.9 -218.9,-113.6 l -10472.3,-237.3 c -1,0 -2.1,0 -3.2,0"
         style="fill:#d3e1fd;fill-opacity:1;fill-rule:nonzero;stroke:none"
         id="path136" /><path
         d="m 16811.9,14654.5 c -74,0 -131.6,57.2 -128.6,128.5 3,72.4 67.3,133.5 142.8,135.8 l 10725.8,330.1 c 1.8,0 3.5,0.1 5.2,0.1 71.5,0 94.4,-47.1 50.5,-106.4 l -101.2,-137.1 c -44.9,-60.8 -143.4,-112 -219,-113.7 l -10472.2,-237.2 c -1.1,-0.1 -2.2,-0.1 -3.3,-0.1"
         style="fill:#d3e1fd;fill-opacity:1;fill-rule:nonzero;stroke:none"
         id="path138" /><path
         d="m 16828.7,13913.8 c -74,0 -131.6,57.2 -128.6,128.5 3,72.4 67.2,133.5 142.8,135.8 l 10725.8,330 c 1.8,0.1 3.5,0.1 5.2,0.1 71.5,0 94.3,-47 50.5,-106.4 l -101.2,-137.1 c -44.9,-60.8 -143.5,-111.9 -219,-113.6 L 16832,13913.8 c -1.1,0 -2.2,0 -3.3,0"
         style="fill:#d3e1fd;fill-opacity:1;fill-rule:nonzero;stroke:none"
         id="path140" /><g
         id="g142"><g
           id="g144"
           clip-path="url(#clipPath148)"><path
             d="m 21364.1,29998.3 c -4.6,203.7 156.7,372.5 360.4,377.1 203.7,4.7 372.5,-156.7 377.1,-360.4 4.7,-203.7 -156.7,-372.5 -360.4,-377.1 -203.7,-4.6 -372.5,156.7 -377.1,360.4 z m -282.6,-1137.5 1476.1,164.7 93.5,1359.5 c 18.8,273.5 -157.3,523.5 -422,595.1 -290.1,78.5 -699.7,75.7 -1163.1,-262.5 -908.9,-663.3 15.5,-1856.8 15.5,-1856.8"
             style="fill:url(#linearGradient154);fill-opacity:1;fill-rule:nonzero;stroke:none"
             id="path156" /></g></g><path
         d="m 22422.8,30017.2 c -19.7,1.4 -34.5,18.4 -33.2,38.1 l 11.4,164.3 c 15.6,226.7 -131.4,434.1 -349.6,493.1 -166.2,45 -336.6,48.1 -506.4,9.3 -19.4,-4.3 -38.4,7.7 -42.8,26.8 -4.4,19.3 7.6,38.4 26.8,42.8 181.3,41.5 363.4,38.2 541.1,-9.9 250.9,-68 420,-306.4 402.1,-567 l -11.3,-164.3 c -1.3,-18.6 -16.6,-32.9 -34.8,-33.3 -1.1,0 -2.2,0 -3.3,0.1 z m -29.2,-424.3 c -19.7,1.4 -34.5,18.4 -33.2,38.1 l 14.9,216.5 c 1.4,19.7 18,34.6 38.1,33.2 19.7,-1.4 34.5,-18.4 33.2,-38.1 l -14.9,-216.5 c -1.3,-18.6 -16.6,-32.8 -34.8,-33.2 -1.1,-0.1 -2.2,-0.1 -3.3,0"
         style="fill:#91b3fa;fill-opacity:1;fill-rule:nonzero;stroke:none"
         id="path158" /><g
         id="g160"><g
           id="g162"
           clip-path="url(#clipPath166)"><path
             d="m 24596,28194.5 -15.4,682.1 c -5.4,235.5 -204.8,419.6 -439.9,406.2 l -4699,-267.6 c -208.5,-11.9 -373.8,-180.5 -381.6,-389.2 l -24.4,-656.3 5560.3,224.8"
             style="fill:url(#linearGradient172);fill-opacity:1;fill-rule:nonzero;stroke:none"
             id="path174" /></g></g><path
         d="m 22823.5,28995.8 202.2,4.6 c 19.7,0.5 35.3,16.8 34.9,36.5 -0.5,19.8 -16.8,35.4 -36.5,34.9 l -202.2,-4.6 c -19.8,-0.4 -35.4,-16.8 -34.9,-36.5 0.4,-19.7 16.8,-35.3 36.5,-34.9"
         style="fill:#91b3fa;fill-opacity:1;fill-rule:nonzero;stroke:none"
         id="path176" /><path
         d="m 24336.6,28402.9 c 19.7,0.5 35.4,16.8 34.9,36.5 l -6.2,276 c -4.9,213.2 -182.3,382.7 -395.4,377.8 l -743.6,-16.8 c -19.7,-0.5 -35.3,-16.8 -34.8,-36.5 0.4,-19.7 16.8,-35.3 36.5,-34.9 l 743.5,16.9 c 173.8,3.9 318.4,-134.3 322.4,-308.1 l 6.2,-276 c 0.5,-19.7 16.8,-35.3 36.5,-34.9"
         style="fill:#91b3fa;fill-opacity:1;fill-rule:nonzero;stroke:none"
         id="path178" /><g
         id="g180"><g
           id="g182"
           clip-path="url(#clipPath186)"><path
             d="m 26063.8,28477.6 -8223.3,-186.1 c -295.7,-6.7 -543.7,-225.2 -587.5,-517.7 l -6.1,-40.4 c -48,-320.4 204.3,-606.7 528.2,-599.4 l 8436.7,191.2 c 193.8,4.4 344.6,169.9 330.9,363.3 l -26.7,377.2 c -16.7,235.9 -215.7,417.2 -452.2,411.9"
             style="fill:url(#linearGradient192);fill-opacity:1;fill-rule:nonzero;stroke:none"
             id="path194" /></g></g><g
         id="g196"><g
           id="g198"
           clip-path="url(#clipPath202)"><path
             d="m 19472.1,12019 -1095.9,2661.4 c -21.2,51.5 -71.3,85.1 -127,85.1 h -674 c -100.1,0 -166.5,-103.6 -124.8,-194.6 L 18721,11798.6 c 27,-58.9 91.5,-90.9 154.7,-76.9 l 499.2,110.9 c 83.2,18.5 129.7,107.6 97.2,186.4"
             style="fill:url(#linearGradient208);fill-opacity:1;fill-rule:nonzero;stroke:none"
             id="path210" /></g></g><g
         id="g212"><g
           id="g214"
           clip-path="url(#clipPath218)"><path
             d="m 21158.6,5392.7 h -322.7 v 3490 h 322.7 v -3490"
             style="fill:url(#linearGradient224);fill-opacity:1;fill-rule:nonzero;stroke:none"
             id="path226" /></g></g><g
         id="g228"><g
           id="g230"
           clip-path="url(#clipPath234)"><path
             d="m 22410.5,5325.4 h -2826.6 v 176.3 c 0,18.7 15.2,33.8 33.8,33.8 h 2759.1 c 18.6,0 33.7,-15.1 33.7,-33.8 v -176.3"
             style="fill:url(#linearGradient240);fill-opacity:1;fill-rule:nonzero;stroke:none"
             id="path242" /></g></g><g
         id="g244"><g
           id="g246"
           clip-path="url(#clipPath250)"><path
             d="m 22830,9003.9 c 0,-190.9 -156.1,-347.1 -347,-347.1 h -2859.8 c -190.9,0 -347,156.2 -347,347.1 v 313.8 c 0,190.9 156.1,347 347,347 H 22483 c 190.9,0 347,-156.1 347,-347 v -313.8"
             style="fill:url(#linearGradient256);fill-opacity:1;fill-rule:nonzero;stroke:none"
             id="path258" /></g></g><g
         id="g260"><g
           id="g262"
           clip-path="url(#clipPath266)"><path
             d="m 18614.7,11209.8 c 0,0 -479.5,-74.3 -1018.7,-434.8 -84.8,-56.7 -131.4,-155.6 -118.6,-256.8 64.6,-511.4 330,-2166.7 1205.4,-3783.3 46.1,-85.3 59.4,-184.5 39,-279.3 l -152.1,-707.7 -282,-264.5 h 726.4 l 483.7,1308.9 -206.8,65.4 c -160.4,50.7 -270.4,198.2 -273.3,366.4 l -24.3,1404.1 c 20.7,625.5 -383.5,1057.1 -383.5,1057.1 l 1160.1,56.4 -1155.3,1468.1"
             style="fill:url(#linearGradient272);fill-opacity:1;fill-rule:nonzero;stroke:none"
             id="path274" /></g></g><g
         id="g276"><g
           id="g278"
           clip-path="url(#clipPath282)"><path
             d="m 18004.1,5355.8 c -66.2,-86.6 712,-200.9 1105.2,-11.5 0,0 545,948.2 545,1436.4 0,0 -43.3,99.6 -363.3,77 0,0 -183,-1122.7 -376.2,-1248.5 -193.3,-125.8 -540.6,-12.7 -540.6,-12.7 0,0 -272.5,-113 -370.1,-240.7"
             style="fill:url(#linearGradient288);fill-opacity:1;fill-rule:nonzero;stroke:none"
             id="path290" /></g></g><g
         id="g292"><g
           id="g294"
           clip-path="url(#clipPath298)"><path
             d="m 19623.2,9664.7 c -6.2,10.7 -1249,149.5 -1249,149.5 0,0 40.6,-377.9 -86.5,-898.1 C 18160.6,8395.9 16335.8,6142 16335.8,6142 l 191.3,-606.5 c -591.6,-206.1 -1173.5,-239 -1746.1,-105.1 l 1185.8,711.6 c 0,0 1109.7,3781.9 1789.5,4456.5 l 1245.8,431.1 621.1,-1364.9"
             style="fill:url(#linearGradient304);fill-opacity:1;fill-rule:nonzero;stroke:none"
             id="path306" /></g></g><g
         id="g308"><g
           id="g310"
           clip-path="url(#clipPath314)"><path
             d="m 22410.5,11865.3 c 0,0 716.1,-1065.1 774.9,-1551 58.7,-485.8 -196.2,-683.2 -947.5,-715.8 -751.4,-32.5 -2757.2,-32 -2757.2,-32 l -1711.9,1463.1 c 0,0 1247.6,445.1 1571.9,571 324.4,125.9 3069.8,264.7 3069.8,264.7"
             style="fill:url(#linearGradient320);fill-opacity:1;fill-rule:nonzero;stroke:none"
             id="path322" /></g></g><g
         id="g324"><g
           id="g326"
           clip-path="url(#clipPath330)"><path
             d="m 16454.8,5739.7 c 0,0 206,-199.5 66.9,-421.5 0,0 -1631.9,-289.2 -2074.9,-158 0,0 92,210 590.9,449 l -36.8,-28.3 c -46.6,-35.7 -19.3,-110.2 39.3,-106.9 328.8,18.8 1009.1,79 1414.6,265.7"
             style="fill:url(#linearGradient336);fill-opacity:1;fill-rule:nonzero;stroke:none"
             id="path338" /></g></g><g
         id="g340"><g
           id="g342"
           clip-path="url(#clipPath346)"><path
             d="m 20474,12006.2 c 0,0 -833.9,794.1 -1244.4,1320 -221.8,284.3 -291.5,658.5 -188.9,1004.2 187.4,631.4 520.4,1285.3 550.8,1387.1 46.6,156 981.5,149.5 981.5,149.5 0,0 1839.9,-1194.1 2562.8,-3216.8 l -811.8,-252.8 c 0,0 -480.4,806 -955.1,1318.4 0,0 821.3,-1085 850.3,-1529.2 L 20474,12006.2"
             style="fill:url(#linearGradient352);fill-opacity:1;fill-rule:nonzero;stroke:none"
             id="path354" /></g></g><g
         id="g356"><g
           id="g358"
           clip-path="url(#clipPath362)"><path
             d="m 19478.4,16589.3 c 9.8,-32.4 253.8,-841.4 272.9,-858.2 19.1,-16.8 535.2,-44.6 778.1,121.5 l -412.1,862.7 -638.9,-126"
             style="fill:url(#linearGradient368);fill-opacity:1;fill-rule:nonzero;stroke:none"
             id="path370" /></g></g><g
         id="g372"><g
           id="g374"
           clip-path="url(#clipPath378)"><path
             d="m 19176.9,17776.2 c 0,0 -289.4,-316.3 -295.4,-947 -6,-630.7 286.1,-786.5 530.2,-714.3 244,72.1 584,234.3 792.4,735.5 208.4,501.3 -643.1,1319.5 -1027.2,925.8"
             style="fill:url(#linearGradient384);fill-opacity:1;fill-rule:nonzero;stroke:none"
             id="path386" /></g></g><g
         id="g388"><g
           id="g390"
           clip-path="url(#clipPath394)"><path
             d="m 19833.6,17015.6 c 0,0 -77.5,883.1 -754.4,583.3 l -107.5,-183.3 c 0,0 -439.9,307.5 -126.9,694.2 313,386.8 999.6,485.5 1422.5,18.7 422.9,-466.7 483.8,-865.5 316.8,-1258.3 -167,-392.8 -421.1,-150.9 -421.1,-150.9 0,0 44.1,315.9 -79.5,417.4 -123.6,101.5 -197.8,-123.5 -197.8,-123.5 l -52.1,2.4"
             style="fill:url(#linearGradient400);fill-opacity:1;fill-rule:nonzero;stroke:none"
             id="path402" /></g></g><g
         id="g404"><g
           id="g406"
           clip-path="url(#clipPath410)"><path
             d="m 19947.8,16965.7 c 0,0 -42.4,453.7 211.7,381.9 254,-71.8 17.2,-429.2 -81.9,-555.2 l -129.8,173.3"
             style="fill:url(#linearGradient416);fill-opacity:1;fill-rule:nonzero;stroke:none"
             id="path418" /></g></g><g
         id="g420"><g
           id="g422"
           clip-path="url(#clipPath426)"><path
             d="m 18775.2,11947.3 612.6,590.5 847.6,-358 c 0,0 843.6,-130.7 1326.5,0 482.8,130.7 482.8,130.7 482.8,130.7 l 1091.1,339.7 171.4,-484.3 c 43.5,-123 -0.2,-259.5 -106.6,-335.1 -94.3,-67 -205,-140.8 -275.5,-171.6 -143.7,-62.9 -3542.2,43.5 -3542.2,43.5 l -607.7,244.6"
             style="fill:url(#linearGradient432);fill-opacity:1;fill-rule:nonzero;stroke:none"
             id="path434" /></g></g><g
         id="g436"><g
           id="g438"
           clip-path="url(#clipPath442)"><path
             d="m 20253.8,18018.8 c -127.1,48.7 -139.3,223.7 -25.9,298.9 366.2,242.5 996.3,455.7 1636.4,-272.7 721,-820.4 1124.4,-1210.9 1352.8,-1207.2 149.9,2.5 237.5,-167.1 138.7,-280 -72.9,-83.5 -197.9,-158.5 -405.3,-203.5 -1600.1,-347.3 -1951.4,1379 -2696.7,1664.5"
             style="fill:url(#linearGradient448);fill-opacity:1;fill-rule:nonzero;stroke:none"
             id="path450" /></g></g><g
         id="g452"><g
           id="g454"
           clip-path="url(#clipPath458)"><path
             d="m 9204.49,5135.8 c -17.16,0 -34.59,3.3 -51.36,10.2 -66.03,27 -96.53,99.9 -68.13,162.8 l 2729.5,6041.9 c 28.4,62.8 104.9,91.8 171,64.8 66.1,-27 96.6,-99.9 68.2,-162.8 L 9324.11,5210.8 c -21.18,-46.9 -69.18,-75 -119.62,-75"
             style="fill:url(#linearGradient464);fill-opacity:1;fill-rule:nonzero;stroke:none"
             id="path466" /></g></g><g
         id="g468"><g
           id="g470"
           clip-path="url(#clipPath474)"><path
             d="m 12279.4,5135.8 c -50.4,0 -98.4,28.1 -119.6,75 l -2729.52,6041.9 c -28.4,62.9 2.1,135.8 68.12,162.8 65.98,27.1 142.56,-1.9 170.99,-64.8 L 12398.9,5308.8 c 28.4,-62.9 -2.1,-135.8 -68.1,-162.8 -16.7,-6.9 -34.2,-10.2 -51.4,-10.2"
             style="fill:url(#linearGradient480);fill-opacity:1;fill-rule:nonzero;stroke:none"
             id="path482" /></g></g><g
         id="g484"><g
           id="g486"
           clip-path="url(#clipPath490)"><path
             d="m 20433.9,5135.8 c -17.1,0 -34.6,3.3 -51.3,10.2 -66.1,27 -96.6,99.9 -68.2,162.8 l 2729.6,6041.9 c 28.4,62.8 104.9,91.8 171,64.8 66,-27 96.5,-99.9 68.1,-162.8 L 20553.6,5210.8 c -21.2,-46.9 -69.2,-75 -119.7,-75"
             style="fill:url(#linearGradient496);fill-opacity:1;fill-rule:nonzero;stroke:none"
             id="path498" /></g></g><g
         id="g500"><g
           id="g502"
           clip-path="url(#clipPath506)"><path
             d="m 23508.9,5135.8 c -50.5,0 -98.5,28.1 -119.7,75 l -2729.5,6041.9 c -28.4,62.9 2.1,135.8 68.1,162.8 66,27.1 142.6,-1.9 171,-64.8 l 2729.5,-6041.9 c 28.5,-62.9 -2,-135.8 -68.1,-162.8 -16.7,-6.9 -34.2,-10.2 -51.3,-10.2"
             style="fill:url(#linearGradient512);fill-opacity:1;fill-rule:nonzero;stroke:none"
             id="path514" /></g></g><g
         id="g516"><g
           id="g518"
           clip-path="url(#clipPath522)"><path
             d="m 24382.4,11539.1 c 8.8,40.3 -3.2,81.9 -33,113.6 -29.8,31.7 -74.1,50 -120.9,50 H 8384.79 c -61.51,0 -118.77,-27.5 -151.91,-73 -33.14,-45.5 -37.58,-102.6 -11.79,-151.6 l 171.69,-326.1 c 39.32,-74.6 124.51,-122.4 218.25,-122.4 H 24119.8 c 87.2,0 162.2,54.2 178.7,129.3 l 83.9,380.2"
             style="fill:url(#linearGradient528);fill-opacity:1;fill-rule:nonzero;stroke:none"
             id="path530" /></g></g><path
         d="m 6403.55,9431.7 c -95.72,-141.6 -476.14,-3348.5 -535.68,-4532.9 -4.04,-80.1 60.03,-146.9 140.23,-146.9 69.16,0 128.01,50.4 138.68,118.8 l 695.82,4459 -439.05,102"
         style="fill:#91b3fa;fill-opacity:1;fill-rule:nonzero;stroke:none"
         id="path532" /><path
         d="m 9462.16,9431.7 c 95.72,-141.6 476.14,-3348.5 535.68,-4532.9 4.06,-80.1 -60.04,-146.9 -140.24,-146.9 -69.16,0 -128.01,50.4 -138.67,118.8 l -695.82,4459 439.05,102"
         style="fill:#91b3fa;fill-opacity:1;fill-rule:nonzero;stroke:none"
         id="path534" /><path
         d="m 5828.08,9682 -0.33,-35 c -2.29,-251.6 214.45,-457.9 485.83,-462.5 l 3216.24,-54.8 c 267.47,-4.5 490.48,188.8 503.38,436.5 l 1.7,32 c 13.5,258.3 -205.81,475.9 -484.76,480.9 l -3217.59,57.7 c -275.39,4.9 -502.14,-199.5 -504.47,-454.8"
         style="fill:#91b3fa;fill-opacity:1;fill-rule:nonzero;stroke:none"
         id="path536" /><g
         id="g538"><g
           id="g540"
           clip-path="url(#clipPath544)"><path
             d="m 11275.1,5413.7 c -510.8,0 -736.8,43.8 -837.9,83.8 19.7,-83.9 94.4,-150.1 188.8,-150.1 h 1807.1 c 60.9,0 99.3,58.2 84.7,111 -206,-16.6 -643.5,-44.7 -1242.7,-44.7"
             style="fill:url(#linearGradient550);fill-opacity:1;fill-rule:nonzero;stroke:none"
             id="path552" /></g></g><g
         id="g554"><g
           id="g556"
           clip-path="url(#clipPath560)"><path
             d="m 12517.8,5458.4 c -2.9,10.6 -7.2,21.1 -14.8,30.7 -137.6,175.8 -414.1,451.8 -790.3,446.5 -551,-7.8 -743.2,-67.6 -1171.4,-3.4 l -101,-334.8 c -10.3,-34.2 -10.5,-68.2 -3.1,-99.9 101.1,-40 327.1,-83.8 837.9,-83.8 599.2,0 1036.7,28.1 1242.7,44.7"
             style="fill:url(#linearGradient566);fill-opacity:1;fill-rule:nonzero;stroke:none"
             id="path568" /></g></g><g
         id="g570"><g
           id="g572"
           clip-path="url(#clipPath576)"><path
             d="m 10665.3,6293.1 -124,-421.8 c 0,0 274.7,-125 516.4,-24.6 l 47.4,365.3 -439.8,81.1"
             style="fill:url(#linearGradient582);fill-opacity:1;fill-rule:nonzero;stroke:none"
             id="path584" /></g></g><g
         id="g586"><g
           id="g588"
           clip-path="url(#clipPath592)"><path
             d="m 14410.8,5679.3 c -398.2,-320 -601.7,-427.5 -705.4,-459.8 67.6,-52.8 167.1,-57.4 240.7,1.8 l 1408.7,1131.8 c 47.5,38.2 41.1,107.4 -3.1,139.2 -150.3,-141.9 -473.8,-437.7 -940.9,-813"
             style="fill:url(#linearGradient598);fill-opacity:1;fill-rule:nonzero;stroke:none"
             id="path600" /></g></g><g
         id="g602"><g
           id="g604"
           clip-path="url(#clipPath608)"><path
             d="m 15351.7,6492.3 c -8.9,6.4 -18.8,11.9 -30.7,14.6 -216.9,50.2 -604.5,91.1 -894.4,-148.6 -424.8,-351.2 -537.3,-517.9 -911.1,-736.3 l 130,-323.1 c 13.3,-32.9 34.4,-59.5 59.9,-79.4 103.7,32.3 307.2,139.8 705.4,459.8 467.1,375.3 790.6,671.1 940.9,813"
             style="fill:url(#linearGradient614);fill-opacity:1;fill-rule:nonzero;stroke:none"
             id="path616" /></g></g><g
         id="g618"><g
           id="g620"
           clip-path="url(#clipPath624)"><path
             d="m 8012.67,11098.1 c 0,0 3058.23,-249.8 3685.63,-545.1 627.4,-295.3 -512,-4434.7 -512,-4434.7 0,0 -170.8,-82.2 -550.8,36 0,0 389.7,3054.6 99.7,3717 l -3311.3,541.6 588.77,685.2"
             style="fill:url(#linearGradient630);fill-opacity:1;fill-rule:nonzero;stroke:none"
             id="path632" /></g></g><g
         id="g634"><g
           id="g636"
           clip-path="url(#clipPath640)"><path
             d="m 13211.6,6203.4 c 28.4,-25.9 303.9,-581.4 303.9,-581.4 0,0 306.7,66.3 369.2,260.4 l -275.9,501.4 -397.2,-180.4"
             style="fill:url(#linearGradient646);fill-opacity:1;fill-rule:nonzero;stroke:none"
             id="path648" /></g></g><g
         id="g650"><g
           id="g652"
           clip-path="url(#clipPath656)"><path
             d="m 6170.7,11123.6 c 0,0 -99.66,-239.8 -95.59,-558.5 5.62,-440.7 359.94,-798.3 800.14,-820.3 l 3615.35,-164.9 c 76.4,-3.5 141,-56.3 160.1,-130.3 84.9,-328.6 500.2,-1337.7 2530.1,-3351.4 54,-53.6 138.2,-62.7 202.5,-22 l 288.9,182.5 c 30.4,19.2 40.1,58.9 21.9,89.9 l -2105,3594.7 c -110.6,182.4 -288.3,314.2 -495,367.1 l -3081.43,787.7 -1841.97,25.5"
             style="fill:url(#linearGradient662);fill-opacity:1;fill-rule:nonzero;stroke:none"
             id="path664" /></g></g><g
         id="g666"><g
           id="g668"
           clip-path="url(#clipPath672)"><path
             d="m 6160.94,11134.2 c 0,0 -35.84,1791.9 322.38,3478.3 132.28,622.7 476.55,1180.3 976.61,1574.3 l 167.3,131.8 837.88,-340.4 430.59,-744 c 237.04,-474.1 178.83,-1503.7 0,-2002.6 -299.02,-834.3 -538.15,-1698.9 -640.07,-2123.6 0,0 -1387.73,-183.3 -2094.69,26.2"
             style="fill:url(#linearGradient678);fill-opacity:1;fill-rule:nonzero;stroke:none"
             id="path680" /></g></g><g
         id="g682"><g
           id="g684"
           clip-path="url(#clipPath688)"><path
             d="m 8203.27,17654 -654.59,-1518.7 c 0,0 209.46,-471.3 942.61,-288 l 261.84,1047.3 -549.86,759.4"
             style="fill:url(#linearGradient694);fill-opacity:1;fill-rule:nonzero;stroke:none"
             id="path696" /></g></g><g
         id="g698"><g
           id="g700"
           clip-path="url(#clipPath704)"><path
             d="m 9500.51,18346.6 c 7.89,-21.2 25.23,-1517.4 25.23,-1517.4 l -854.51,8.2 -227.12,1415.7 c 0,0 924.28,448.6 1056.4,93.5"
             style="fill:url(#linearGradient710);fill-opacity:1;fill-rule:nonzero;stroke:none"
             id="path712" /></g></g><g
         id="g714"><g
           id="g716"
           clip-path="url(#clipPath720)"><path
             d="m 8694.75,17980.8 61.2,-754.5 c 0.78,-9.7 2.8,-19 6.18,-28.1 20.64,-55.7 105.73,-242.2 291.23,-143.5 168.32,89.5 323.28,168.7 444.34,158.5 54.35,-4.5 96.28,-49.5 96.9,-104.1 1.54,-135.9 -0.65,-442.3 -43.17,-708.2 -8.63,-54 -57.48,-91.9 -112,-88 -164.23,11.6 -509.95,45.9 -781.61,138.6 -36.82,12.5 -63.87,43.8 -70.49,82.1 -32.21,186.9 -132.24,754.5 -184.58,908.3 -49.12,144.4 -250.06,193.9 -335.92,208.6 -28.15,4.8 -52.86,20.9 -68.8,44.5 -56.38,83.8 -152.64,285 95.82,429.6 52,30.3 68.44,97 36.6,148 -63.4,101.7 -116.45,266.2 70.27,403.6 189.78,139.6 370.94,61.5 475.35,-11.2 42.23,-29.4 98.42,-23.2 135.13,12.9 20.89,20.5 50.99,32.3 93.74,16.9 57.59,-20.6 120.15,15.5 134.73,74.9 28,114.2 106.64,247 319.98,256.2 378.57,16.4 507.37,-379.2 462.31,-637 -45.06,-257.9 -456.52,-252.4 -678.96,-175.4 -169.14,58.6 -342.47,-78.6 -415.84,-147.7 -23.24,-21.9 -35,-53.1 -32.41,-85"
             style="fill:url(#linearGradient726);fill-opacity:1;fill-rule:nonzero;stroke:none"
             id="path728" /></g></g><g
         id="g730"><g
           id="g732"
           clip-path="url(#clipPath736)"><path
             d="m 8427.78,17167.4 c 0,0 59.23,452.7 -117.21,522.3 -176.44,69.6 -393.25,-33.2 -277.16,-326.8 144.4,-365.2 394.37,-195.5 394.37,-195.5"
             style="fill:url(#linearGradient742);fill-opacity:1;fill-rule:nonzero;stroke:none"
             id="path744" /></g></g><g
         id="g746"><g
           id="g748"
           clip-path="url(#clipPath752)"><path
             d="m 10220.1,12573.4 c -2157.95,-677.4 -2043.15,2359.9 -2057.13,2381.2 -855.46,1307.3 -1335.82,-434.8 -1252.92,-680.4 758.76,-2747 2671.53,-2611 3416.85,-2071.4 -92.8,144.4 -114,271.5 -106.8,370.6"
             style="fill:url(#linearGradient758);fill-opacity:1;fill-rule:nonzero;stroke:none"
             id="path760" /></g></g><g
         id="g762"><g
           id="g764"
           clip-path="url(#clipPath768)"><path
             d="m 8565.86,13042 c -11.9,3.7 -22.63,11.4 -29.9,22.7 -326.96,509.5 -419.22,1217.5 -439.06,1721.8 -1.19,30.3 22.41,55.8 52.7,57 30.31,1.2 55.82,-22.4 57.01,-52.7 15.8,-401.7 91.58,-1152.3 421.77,-1666.8 16.37,-25.5 8.95,-59.4 -16.56,-75.8 -14.2,-9.1 -31,-10.9 -45.96,-6.2"
             style="fill:url(#linearGradient774);fill-opacity:1;fill-rule:nonzero;stroke:none"
             id="path776" /></g></g><g
         id="g778"><g
           id="g780"
           clip-path="url(#clipPath784)"><path
             d="m 7963.26,12351.8 c -6.76,2.1 -13.22,5.5 -18.97,10.3 -493.18,413.3 -864.77,1062.7 -1104.4,1930.3 -8.07,29.2 9.08,59.5 38.3,67.5 29.23,8.1 59.46,-9.1 67.53,-38.3 233.6,-845.7 593.29,-1476.6 1069.09,-1875.3 23.24,-19.5 26.29,-54.1 6.82,-77.4 -14.65,-17.4 -37.88,-23.5 -58.37,-17.1"
             style="fill:url(#linearGradient790);fill-opacity:1;fill-rule:nonzero;stroke:none"
             id="path792" /></g></g><g
         id="g794"><g
           id="g796"
           clip-path="url(#clipPath800)"><path
             d="m 11490.4,13207.6 c 0,0 -35.1,-55.9 -287.7,-251.7 -252.7,-195.8 -507,-308.7 -313.9,-39.7 193.2,269.1 99.2,407.9 -121.3,118.1 -220.4,-289.8 -378,-401.8 -378,-401.8 -58,-22.2 -114.4,-41.8 -169.4,-59.1 -7.2,-99.1 14,-226.2 106.8,-370.6 87.4,29 136.8,50.3 136.8,50.3 0,0 668.3,121.6 811.4,406.2 143.2,284.5 215.3,548.3 215.3,548.3"
             style="fill:url(#linearGradient806);fill-opacity:1;fill-rule:nonzero;stroke:none"
             id="path808" /></g></g><path
         d="m 16372.8,14627.4 c 0,0 -5533.9,2734.3 -3724.1,4747.5 1809.8,2013.2 5183.8,1208.5 5354.8,-910.4 170.9,-2118.9 -3935.8,-1621.8 -1630.7,-3837.1"
         style="fill:#ffffff;fill-opacity:1;fill-rule:nonzero;stroke:none"
         id="path810" /><path
         d="m 13116.8,18799.1 h 2442.3 c 30.8,0 55.8,25 55.8,55.8 0,30.9 -25,55.8 -55.8,55.8 h -2442.3 c -30.8,0 -55.8,-24.9 -55.8,-55.8 0,-30.8 25,-55.8 55.8,-55.8"
         style="fill:#91b3fa;fill-opacity:1;fill-rule:nonzero;stroke:none"
         id="path812" /><path
         d="m 16284.3,18799.1 h 724.7 c 30.8,0 55.8,25 55.8,55.8 0,30.9 -25,55.8 -55.8,55.8 h -724.7 c -30.8,0 -55.8,-24.9 -55.8,-55.8 0,-30.8 25,-55.8 55.8,-55.8"
         style="fill:#91b3fa;fill-opacity:1;fill-rule:nonzero;stroke:none"
         id="path814" /><path
         d="m 13034.5,18304.7 h 917.1 c 30.8,0 55.8,25 55.8,55.8 0,30.8 -25,55.8 -55.8,55.8 h -917.1 c -30.8,0 -55.8,-25 -55.8,-55.8 0,-30.8 25,-55.8 55.8,-55.8"
         style="fill:#91b3fa;fill-opacity:1;fill-rule:nonzero;stroke:none"
         id="path816" /><path
         d="m 15297.2,18304.7 h 1629.5 c 30.8,0 55.8,25 55.8,55.8 0,30.8 -25,55.8 -55.8,55.8 h -1629.5 c -30.8,0 -55.8,-25 -55.8,-55.8 0,-30.8 25,-55.8 55.8,-55.8"
         style="fill:#91b3fa;fill-opacity:1;fill-rule:nonzero;stroke:none"
         id="path818" /><path
         d="M 12952.2,17810.2 H 15390 c 30.9,0 55.8,25 55.8,55.8 0,30.9 -24.9,55.8 -55.8,55.8 h -2437.8 c -30.8,0 -55.8,-24.9 -55.8,-55.8 0,-30.8 25,-55.8 55.8,-55.8"
         style="fill:#91b3fa;fill-opacity:1;fill-rule:nonzero;stroke:none"
         id="path820" /><path
         d="m 16000.5,17810.2 h 843.9 c 30.8,0 55.8,25 55.8,55.8 0,30.9 -25,55.8 -55.8,55.8 h -843.9 c -30.8,0 -55.8,-24.9 -55.8,-55.8 0,-30.8 25,-55.8 55.8,-55.8"
         style="fill:#91b3fa;fill-opacity:1;fill-rule:nonzero;stroke:none"
         id="path822" /></g></g></svg>
